<svg xmlns="http://www.w3.org/2000/svg" viewBox="0 0 48 48" id="bank-account"><rect width="8" height="4" x="4" y="21" fill="#bfbfbf"></rect><rect width="8" height="4" x="4" y="39" fill="#bfbfbf"></rect><rect width="8" height="4" x="36" y="21" fill="#bfbfbf" transform="rotate(-180 40 23)"></rect><rect width="8" height="4" x="36" y="39" fill="#bfbfbf" transform="rotate(-180 40 41)"></rect><polygon fill="#bfbfbf" points="10.57 14 24 4.65 37.43 14 10.57 14"></polygon><path fill="#424242" d="M47.93,16.64C47.54,16.06,50.13,18,24.57.18a1,1,0,0,0-1.14,0C-2,17.87.39,16.16.07,16.64,0,16.91,0,16.66,0,21a1,1,0,0,0,1,1H3v3a1,1,0,0,0,1,1H5V38H4a1,1,0,0,0-1,1v3H1a1,1,0,0,0-1,1v4a1,1,0,0,0,1,1H47a1,1,0,0,0,1-1V43a1,1,0,0,0-1-1H45V39a1,1,0,0,0-1-1H43V26h1a1,1,0,0,0,1-1V22h2a1,1,0,0,0,1-1C48,16.65,48,16.91,47.93,16.64ZM24,2.22,43.81,16H4.19ZM5,40h6v2H5ZM36,26h1V38H36a1,1,0,0,0-1,1v3H13V39a1,1,0,0,0-1-1H11V26h1a1,1,0,0,0,1-1V22H35v3A1,1,0,0,0,36,26Zm7,14v2H37V40Zm-4-2V26h2V38ZM11,24H5V22h6ZM9,26V38H7V26ZM46,44v2H2V44ZM43,24H37V22h6Zm3-4H2V18H46Z"></path><circle cx="24" cy="31" r="2" fill="#fc6459"></circle><path fill="#fc6459" d="M29.22,38.05a8,8,0,0,1-10.44,0A6,6,0,0,1,29.22,38.05Z"></path><path fill="#fc6459" d="M30.6,36.5A8,8,0,0,0,27,33.6a4,4,0,1,0-6,0,8,8,0,0,0-3.58,2.9,8,8,0,1,1,13.2,0Z"></path></svg>