<svg xmlns="http://www.w3.org/2000/svg" viewBox="0 0 75 75" id="online-banking"><path fill="#2fb9ea" d="M-170.6 180.2s-16.4 3.3-21.9 3.3-21.9-3.3-21.9-3.3v-31.3h43.8v31.3z"></path><path fill="#f73152" d="M-192.5 180.5c-3.7 0-13.4-1.7-18.9-2.8v-25.9h37.8v25.9c-5.5 1.1-15.2 2.8-18.9 2.8z"></path><path fill="#d30b49" d="M-177.6 151.8h4v25.8h-4z"></path><path fill="#f73152" d="M-51.4-53.6v5.1h-16.2v-5.1M-87.4-53.6v5.1h-16.2v-5.1"></path><path fill="#d30b49" d="M-56.2-53.6h4.8v5.2h-4.8zM-92.3-53.6h4.9v5.2h-4.9z"></path><path fill="#f73152" d="M-50.1-53.6h-54.8c-2 0-3.6-1.6-3.6-3.6V-103c0-2 1.6-3.6 3.6-3.6h54.8c2 0 3.6 1.6 3.6 3.6v45.8c0 2-1.6 3.6-3.6 3.6z"></path><path fill="#d30b49" d="M-50.1-106.5h-3.7c2 0 3.6 1.6 3.6 3.6v45.8c0 2-1.6 3.6-3.6 3.6h3.7c2 0 3.6-1.6 3.6-3.6V-103c0-1.9-1.6-3.5-3.6-3.5z"></path><path fill="#2fb9ea" d="M-99.4-96.8v-3.7h46.9v40.9h-46.9v-3.8"></path><path fill="#19a0bf" d="M-99.4-100.5V-96.4h42.8v36.8h4.1v-40.9z"></path><circle cx="-76" cy="-80.6" r="16.2" fill="#a6d856"></circle><path fill="#93b744" d="M-76-96.8c-1.4 0-2.8.2-4.1.5h.5c8.9 0 16.2 7.2 16.2 16.2 0 7.5-5.1 13.8-12.1 15.6 8.7-.3 15.7-7.4 15.7-16.1 0-8.9-7.2-16.2-16.2-16.2z"></path><circle cx="-76" cy="-80.6" r="9.5" fill="#bcbec0"></circle><path fill="#afafaf" d="M-76-90.1c-1.7 0-3.3.5-4.7 1.3.6-.1 1.2-.2 1.9-.2 5.3 0 9.5 4.3 9.5 9.5 0 3.5-1.9 6.6-4.8 8.2 4.4-.9 7.7-4.7 7.7-9.3-.1-5.2-4.3-9.5-9.6-9.5z"></path><path fill="#f73152" d="m-74.9-84.6 4.9-4.9c.8-.8 2.1-.8 2.9 0 .8.8.8 2.1 0 2.9l-4.9 4.9"></path><path fill="#d30b49" d="M-67.1-89.5c-.8-.8-2.1-.8-2.9 0l-4.9 4.9 3.2-3.2c.8-.8 2.1-.8 2.9 0 .8.8.8 2 .1 2.8l1.6-1.6c.8-.8.8-2.1 0-2.9z"></path><path fill="#f73152" d="m-74.9-76.6 4.9 4.9c.8.8 2.1.8 2.9 0 .8-.8.8-2.1 0-2.9l-4.9-4.9m-5.1 2.9-4.9 4.9c-.8.8-2.1.8-2.9 0-.8-.8-.8-2.1 0-2.9l4.9-4.9m2.9-5.1-4.9-4.9c-.8-.8-2.1-.8-2.9 0-.8.8-.8 2.1 0 2.9l4.9 4.9"></path><path fill="#f73152" d="m-77.1-76.6-4.9 4.9c-.8.8-2.1.8-2.9 0-.8-.8-.8-2.1 0-2.9l4.9-4.9"></path><path fill="#d30b49" d="m-67.1-74.6-4.9-4.9-1.4 1.4 4.8 4.8c.6.6.7 1.5.5 2.2.4-.1.8-.3 1.1-.6.7-.8.7-2.1-.1-2.9zM-83.3-88l4.8 4.8 1.4-1.4-4.9-4.9c-.8-.8-2.1-.8-2.9 0-.3.3-.5.7-.6 1.1.8-.3 1.7-.2 2.2.4z"></path><circle cx="-76" cy="-80.6" r="4.2" fill="#2fb9ea"></circle><path fill="#19a0bf" d="M-76-84.7c-.7 0-1.4.2-2 .5 2.3 0 4.1 1.9 4.1 4.2 0 1.6-.9 2.9-2.2 3.6 2.3 0 4.2-1.9 4.2-4.2.1-2.3-1.8-4.1-4.1-4.1z"></path><path fill="#2fb9ea" d="M-97.6-172.7v-26.9h-7v26.9M-95.5-206.2v3.3h-11.2v-3.3"></path><path fill="#2fb9ea" d="M-95.5-202.9v3.3h-11.2v-3.3M-95.5-166v-3.3h-11.2v3.3M-95.5-169.3v-3.4h-11.2v3.4M-104.6-172.7v-26.9M-97.6-199.6v26.9M-108.5-166h62v4.5h-62zM-48.3-166v-3.3h-11.2v3.3"></path><path fill="#19a0bf" d="M-52.8-169.3h4.1v3.3h-4.1z"></path><path fill="#2fb9ea" d="M-48.3-169.3v-3.4h-11.2v3.4"></path><path fill="#f73152" d="M-91-166v-22.2c0-7.4 6-13.5 13.5-13.5 7.4 0 13.5 6 13.5 13.5v22.2"></path><path fill="#d30b49" d="M-77.5-201.6c-2.4 0-4.6.6-6.6 1.7 1.1-.3 2.2-.5 3.4-.5 7.4 0 13.5 6 13.5 13.5v20.9h3.1v-22.2c.1-7.4-5.9-13.4-13.4-13.4z"></path><path fill="#2fb9ea" d="M-48.3-206.2v3.3h-11.2v-3.3"></path><path fill="#2fb9ea" d="M-48.3-202.9v3.3h-11.2v-3.3"></path><path fill="#19a0bf" d="M-52.8-206.2h4.1v3.3h-4.1z"></path><path fill="#2fb9ea" d="m-77.5-223.5-31 10.7h62z"></path><path fill="#19a0bf" d="M-53.1-212.8h6.6l-31-10.7-3.3 1.1z"></path><circle cx="-77.5" cy="-184.5" r="8.1" fill="#a6d856"></circle><path fill="#93b744" d="M-77.5-192.6c-1.7 0-3.2.5-4.5 1.3.7-.2 1.4-.3 2.1-.3 4.5 0 8.1 3.6 8.1 8.1 0 2.8-1.4 5.3-3.6 6.7 3.5-.9 6-4.1 6-7.8 0-4.4-3.6-8-8.1-8z"></path><path fill="#2fb9ea" d="M-108.5-209.8h62v3.5h-62z"></path><path fill="#19a0bf" d="M-52.8-209.8h6.3v3.5h-6.3zM-52.8-166h6.3v4.5h-6.3zM-52.8-202.9h4.1v3.3h-4.1zM-52.8-172.7h4.1v3.3h-4.1z"></path><path fill="#2fb9ea" d="M-50.4-172.7v-26.9h-7v26.9"></path><path fill="#19a0bf" d="M-52.8-199.6h2.4v26.9h-2.4z"></path><path d="M-77.5-193.6c-5 0-9.1 4.1-9.1 9.1s4.1 9.1 9.1 9.1 9.1-4.1 9.1-9.1-4.1-9.1-9.1-9.1zm0 16.2c-3.9 0-7.1-3.2-7.1-7.1s3.2-7.1 7.1-7.1c3.9 0 7.1 3.2 7.1 7.1s-3.2 7.1-7.1 7.1z"></path><path d="M-77.6-187c.1 0 .1 0 0 0h.1c.4 0 .7.3.7.7 0 .6.4 1 1 1s1-.4 1-1c0-1.2-.7-2.1-1.7-2.5v-1.2c0-.6-.4-1-1-1s-1 .4-1 1v1.2c-1 .4-1.7 1.4-1.7 2.5 0 1.5 1.2 2.7 2.7 2.7.4 0 .7.3.7.7 0 .4-.3.7-.7.7-.4 0-.7-.3-.7-.7 0-.6-.4-1-1-1s-1 .4-1 1c0 1.2.7 2.1 1.7 2.5v1.2c0 .6.4 1 1 1s1-.4 1-1v-1.2c1-.4 1.7-1.4 1.7-2.5 0-1.5-1.2-2.7-2.7-2.7-.4 0-.7-.3-.7-.7 0-.4.3-.7.6-.7zm-30.9-24.8h62c.5 0 .9-.4 1-.8.1-.5-.2-1-.7-1.1l-31-10.8c-.2-.1-.4-.1-.7 0l-31 10.8c-.5.2-.7.6-.7 1.1.2.5.6.8 1.1.8zm31-10.6 25 8.7h-50.1l25.1-8.7z"></path><path d="M-48.3-198.6c.6 0 1-.4 1-1v-5.7h.8c.6 0 1-.4 1-1v-3.5c0-.6-.4-1-1-1h-62c-.6 0-1 .4-1 1v3.5c0 .6.4 1 1 1h.8v5.7c0 .6.4 1 1 1h1v24.9h-1c-.6 0-1 .4-1 1v5.7h-.8c-.6 0-1 .4-1 1v4.5c0 .6.4 1 1 1h62c.6 0 1-.4 1-1v-4.5c0-.6-.4-1-1-1h-.8v-5.7c0-.6-.4-1-1-1h-1v-24.9h1zm-2.1-2h-8.1v-1.3h9.2v1.3h-1.1zm-9.1 26.9c-.6 0-1 .4-1 1v5.7H-63v-21.2c0-8-6.5-14.5-14.5-14.5S-92-196.2-92-188.2v21.2h-2.6v-5.7c0-.6-.4-1-1-1h-1v-24.9h1c.6 0 1-.4 1-1v-5.7h34v5.7c0 .6.4 1 1 1h1v24.9h-.9zM-90-167v-21.2c0-6.9 5.6-12.5 12.5-12.5s12.5 5.6 12.5 12.5v21.2h-25zm40.7-36.9h-9.2v-1.3h9.2v1.3zm-58.2-4.9h60v1.5h-60v-1.5zm11 3.6v1.3h-9.2v-1.3h9.2zm-9.2 3.3h9.2v1.3h-9.1v-1.3zm2.1 3.3h5.1v24.9h-5.1v-24.9zm7.1 26.9v1.3h-9.2v-1.3h9.2zm-9.2 3.4h9.2v1.3h-9.2v-1.3zm58.2 5.8h-60v-2.5h60v2.5zm-11-4.5v-1.3h9.2v1.3h-9.2zm9.2-3.3h-9.2v-1.3h9.2v1.3zm-2.1-3.4h-5.1v-24.9h5.1v24.9z"></path><path fill="#2fb9ea" d="m6.53-184.861 38.678-38.68 23.334 23.334-38.678 38.68z"></path><path fill="#19a0bf" d="m45.1-223.5-2 2.1 21.2 21.2-36.5 36.6 2.1 2.1 38.6-38.6z"></path><path fill="#a6d856" d="m20.7-175.7-6-6c1.7-1.7 1.7-4.6 0-6.3l13.7-13.7L42-215.4c1.7 1.7 4.6 1.7 6.3 0l6 6 6 6c-1.7 1.7-1.7 4.6 0 6.3l-13.7 13.7L33-169.6c-1.7-1.7-4.6-1.7-6.3 0l-6-6.1z"></path><path fill="#93b744" d="m60.4-203.3-6-6-6-6c-.7.7-1.5 1.1-2.4 1.2l4.8 4.8 6 6c-1.7 1.7-1.7 4.6 0 6.3l-13.7 13.7-12.4 12.4c.9.2 1.7.6 2.4 1.2l13.7-13.7L60.4-197c-1.8-1.7-1.8-4.6 0-6.3z"></path><circle cx="-291.5" cy="-61.5" r="14.9" fill="#f73152"></circle><path fill="#d30b49" d="M-291.5-76.4c-.7 0-1.4.1-2 .2 7.3 1 12.9 7.2 12.9 14.8s-5.6 13.8-12.9 14.8c.7.1 1.3.2 2 .2 8.3 0 14.9-6.7 14.9-14.9s-6.6-15.1-14.9-15.1z"></path><circle cx="-323.5" cy="-93.5" r="14.9" fill="#a6d856"></circle><path fill="#93b744" d="M-323.5-108.5c-.8 0-1.5.1-2.3.2 7.2 1.1 12.7 7.3 12.7 14.8s-5.5 13.7-12.7 14.8c.7.1 1.5.2 2.3.2 8.3 0 14.9-6.7 14.9-14.9s-6.7-15.1-14.9-15.1z"></path><path d="M-291.5-45.5c-8.8 0-15.9-7.2-15.9-15.9 0-8.8 7.2-15.9 15.9-15.9 8.8 0 15.9 7.2 15.9 15.9.1 8.7-7.1 15.9-15.9 15.9zm0-29.9c-7.7 0-13.9 6.3-13.9 13.9 0 7.7 6.3 13.9 13.9 13.9 7.7 0 13.9-6.3 13.9-13.9.1-7.7-6.2-13.9-13.9-13.9z"></path><path fill="#2fb9ea" d="M-305-99.8c10.5 1.2 18.9 9.7 19.8 20.6l5.1-17-4 .3v-.1c-5.5-7-14-11.4-23.4-11.4m-2.6 52.1c-10.5-1.2-18.9-9.7-19.8-20.6l-5.1 17 4-.3v.1c5.5 7 14 11.4 23.4 11.4"></path><path d="M-307.5-46.7c-9.3 0-18-4.1-23.9-11.4l-3.5.3c-.3 0-.6-.1-.9-.4-.2-.3-.3-.6-.2-.9l5.1-17c.1-.5.6-.8 1.1-.7.5.1.9.4.9.9.8 10.2 8.7 18.5 18.9 19.7.5.1.9.6.9 1.1-.1.5-.6.9-1.1.9-9.7-1.1-17.5-8.1-19.9-17.2l-3.5 11.6 2.5-.2c.3 0 .7.1.9.4 5.6 7 13.8 11 22.6 11 .6 0 1 .4 1 1 .1.5-.3.9-.9.9zm-16.1-43c-.8 0-1.5-.7-1.5-1.5 0-.6-.4-1-1-1s-1 .4-1 1c0 1.6 1 2.9 2.5 3.3v2c0 .6.4 1 1 1s1-.4 1-1v-2c1.4-.4 2.5-1.7 2.5-3.3 0-1.9-1.6-3.5-3.5-3.5-.8 0-1.5-.7-1.5-1.5s.7-1.5 1.5-1.5 1.5.7 1.5 1.5c0 .6.4 1 1 1s1-.4 1-1c0-1.6-1-2.9-2.5-3.3v-1.9c0-.6-.4-1-1-1s-1 .4-1 1v1.9c-1.4.4-2.5 1.7-2.5 3.3 0 1.9 1.6 3.5 3.5 3.5.8 0 1.5.7 1.5 1.5s-.7 1.5-1.5 1.5zm35.5 23-3.3 3.3-3.3-3.3c-.4-.4-1-.4-1.4 0-.2.2-.3.5-.3.7s.1.5.3.7l3.8 3.8v.4h-1.9c-.6 0-1 .4-1 1s.4 1 1 1h1.9v.3h-1.9c-.6 0-1 .4-1 1s.4 1 1 1h1.9v2.5c0 .6.4 1 1 1s1-.4 1-1v-2.5h1.9c.6 0 1-.4 1-1s-.4-1-1-1h-1.9v-.3h1.9c.6 0 1-.4 1-1s-.4-1-1-1h-1.9v-.4l3.8-3.8c.4-.4.4-1 0-1.4s-1.2-.4-1.6 0z"></path><path d="M-291.5-77.4c-8.8 0-15.9 7.2-15.9 15.9 0 8.8 7.2 15.9 15.9 15.9 8.8 0 15.9-7.2 15.9-15.9.1-8.8-7.1-15.9-15.9-15.9zm0 29.9c-7.7 0-13.9-6.3-13.9-13.9 0-7.7 6.3-13.9 13.9-13.9 7.7 0 13.9 6.3 13.9 13.9.1 7.6-6.2 13.9-13.9 13.9zm-32-30.1c8.8 0 15.9-7.2 15.9-15.9 0-8.8-7.2-15.9-15.9-15.9-8.8 0-15.9 7.2-15.9 15.9-.1 8.8 7.1 15.9 15.9 15.9zm0-29.9c7.7 0 13.9 6.3 13.9 13.9 0 7.7-6.3 13.9-13.9 13.9-7.7 0-13.9-6.3-13.9-13.9-.1-7.6 6.2-13.9 13.9-13.9zm16 1.2c8.9 0 17.1 4 22.7 11 .2.3.5.4.9.4l2.5-.2-3.5 11.6c-2.4-9.1-10.3-16.1-19.9-17.2-.5-.1-1 .3-1.1.9-.1.5.3 1 .9 1.1 10.2 1.2 18.1 9.4 18.9 19.7 0 .5.4.9.9.9h.1c.4 0 .8-.3 1-.7l5.1-17c.1-.3 0-.7-.2-.9-.2-.3-.5-.4-.9-.4l-3.5.3c-5.9-7.2-14.6-11.4-23.9-11.4-.6 0-1 .4-1 1 0 .4.4.9 1 .9zm0 57.6c-8.9 0-17.1-4-22.7-11-.2-.3-.5-.4-.9-.4l-2.5.2 3.5-11.6c2.4 9.1 10.3 16.1 19.9 17.2.5.1 1-.3 1.1-.9.1-.5-.3-1-.9-1.1-10.2-1.2-18.1-9.4-18.9-19.7 0-.5-.4-.9-.9-.9s-.9.2-1.1.7l-5.1 17c-.1.3 0 .7.2.9.2.3.5.4.9.4l3.5-.3c5.9 7.2 14.6 11.4 23.9 11.4.6 0 1-.4 1-1 0-.4-.5-.9-1-.9z"></path><path fill="#a6d856" d="m-218.7-77.7 30.6-30.6 18.8 18.8-11.8 11.8"></path><path fill="#2fb9ea" d="M-211.7-77.7c-.1-.8-.4-1.5-1-2.1l11-11 11-11c1.4 1.4 3.7 1.4 5.1 0l4.9 4.9 4.9 4.9c-1.4 1.4-1.4 3.7 0 5.1l-9.3 9.3"></path><circle cx="-191.5" cy="-86.1" r="8.1" fill="#a6d856"></circle><path fill="#93b744" d="M-185.7-91.9c-2-2-4.8-2.7-7.4-2.2 1.5.3 3 1 4.1 2.2 3.2 3.2 3.2 8.3 0 11.5a7.89 7.89 0 0 1-4.1 2.2c2.6.5 5.4-.2 7.4-2.2 3.1-3.2 3.1-8.3 0-11.5z"></path><path fill="#2fb9ea" d="M-219.3-67.7v-9.9h52.9c2.6 0 4.7-2 4.9-4.6v-.3 32c0 2.1-1.7 3.9-3.9 3.9h-50c-2.1 0-3.9-1.7-3.9-3.9v-7.4"></path><path fill="#19a0bf" d="M-161.5-82.3c-.1 2.6-2.3 4.6-4.9 4.6h-1.1v27.1c0 2.1-1.7 3.9-3.9 3.9h6c2.1 0 3.9-1.7 3.9-3.9v-32 .3z"></path><path fill="#f73152" d="M-212.9-57.9h-10.6v-9.8h10.6c2.7 0 4.9 2.2 4.9 4.9s-2.2 4.9-4.9 4.9z"></path><circle cx="-213.7" cy="-62.8" r="2.3" fill="#bcbec0"></circle><path d="M-187.7-83.8c.4-1 .3-2.2-.6-3-1.1-1.1-2.8-1.1-3.9 0-.3.3-.8.3-1.1 0-.3-.3-.3-.8 0-1.1.3-.3.8-.3 1.1 0 .4.4 1 .4 1.4 0s.4-1 0-1.4c-.8-.8-2-1-3-.6l-.8-.8c-.4-.4-1-.4-1.4 0s-.4 1 0 1.4l.8.8c-.4 1-.3 2.2.6 3 1.1 1.1 2.8 1.1 3.9 0 .3-.3.8-.3 1.1 0 .3.3.3.8 0 1.1-.3.3-.8.3-1.1 0-.4-.4-1-.4-1.4 0s-.4 1 0 1.4c.5.5 1.2.8 1.9.8.4 0 .7-.1 1.1-.2l.8.8c.2.2.5.3.7.3s.5-.1.7-.3c.4-.4.4-1 0-1.4l-.8-.8zm-26 24.3c1.8 0 3.3-1.5 3.3-3.3s-1.5-3.3-3.3-3.3-3.3 1.5-3.3 3.3 1.5 3.3 3.3 3.3zm0-4.6c.7 0 1.3.6 1.3 1.3s-.6 1.3-1.3 1.3-1.3-.6-1.3-1.3.6-1.3 1.3-1.3z"></path><path d="M-160.5-82.6c0-3.2-2.6-5.9-5.9-5.9h-2.6l.4-.4c.4-.4.4-1 0-1.4l-18.8-18.8c-.4-.4-1-.4-1.4 0l-20.6 20.6h-7.7c-.6 0-1 .4-1 1s.4 1 1 1h5.7l-7.8 7.8h-.1c-.6 0-1 .4-1 1v8.9h-3.2c-.6 0-1 .4-1 1v9.8c0 .6.4 1 1 1h3.2v6.4c0 2.7 2.2 4.9 4.9 4.9h50c2.7 0 4.9-2.2 4.9-4.9v-32zm-5.9-3.8c2.1 0 3.9 1.7 3.9 3.9v.2c-.1 2.1-1.8 3.7-3.9 3.7h-12.3l7.8-7.8h4.5zm-41.9-.3 20.2-20.2 17.4 17.4-1.4 1.4-9.5 9.5h-1.2l7.6-7.6c.4-.4.4-1 0-1.4-.5-.5-.8-1.1-.8-1.8s.3-1.3.8-1.8c.2-.2.3-.4.3-.7 0-.3-.1-.5-.3-.7l-9.7-9.7c-.4-.4-1-.4-1.4 0-1 1-2.7 1-3.7 0-.4-.4-1-.4-1.4 0l-22 22c-.4.4-.4 1 0 1.4l.3.3h-3.2l8-8.1zm22.1 8c.4-.3.8-.6 1.2-1 1.7-1.7 2.7-4 2.7-6.4 0-2.4-.9-4.7-2.7-6.4-1.7-1.7-4-2.7-6.4-2.7s-4.7.9-6.4 2.7c-1.7 1.7-2.7 4-2.7 6.4 0 2.4.9 4.7 2.7 6.4.4.4.8.7 1.2 1h-14.2c-.1-.3-.3-.7-.5-1l20.8-20.8c.7.5 1.6.7 2.5.7.9 0 1.7-.2 2.5-.7l8.4 8.4c-.5.7-.7 1.6-.7 2.5 0 .9.2 1.7.7 2.5l-8.4 8.4h-.7zm-10.3-2.4c-1.3-1.3-2.1-3.1-2.1-5s.7-3.7 2.1-5c1.3-1.3 3.1-2.1 5-2.1s3.7.7 5 2.1 2.1 3.1 2.1 5-.7 3.7-2.1 5-3.1 2.1-5 2.1-3.7-.8-5-2.1zm-26 14.4h9.6c2.2 0 3.9 1.8 3.9 3.9s-1.8 3.9-3.9 3.9H-222.5v-7.8zm57.1 19h-50c-1.6 0-2.9-1.3-2.9-2.9V-57h5.4c3.3 0 5.9-2.6 5.9-5.9s-2.6-5.9-5.9-5.9h-5.4v-7.9h51.9c1.5 0 2.8-.5 3.9-1.5v6.1h-40.7c-.6 0-1 .4-1 1s.4 1 1 1h40.7v7.5h-23c-.6 0-1 .4-1 1s.4 1 1 1h23v10.1c0 1.5-1.3 2.8-2.9 2.8z"></path><path d="M-189.2-62.6h-8.9c-.6 0-1 .4-1 1s.4 1 1 1h8.9c.6 0 1-.4 1-1s-.4-1-1-1z"></path><g fill="#bcbec0"><path d="M-101.9-96.8h4.9v11.4h-4.9zM-99.4-63.4h-2.5v-11.4h4.9v11.4h-2.4"></path></g><path fill="#f73152" d="M45.5-97.6c-.8.6-1.2 1.4-1.1 2.4.2 1.6-1.1 2.8-2.7 2.7-1-.1-1.8.2-2.4 1.1-.9 1.3-2.8 1.3-3.8 0-.6-.8-1.4-1.2-2.4-1.1-1.6.2-2.8-1.1-2.7-2.7.1-1-.2-1.8-1.1-2.4-1.3-.9-1.3-2.8 0-3.8.8-.6 1.2-1.4 1.1-2.4-.2-1.6 1.1-2.8 2.7-2.7 1 .1 1.8-.2 2.4-1.1.9-1.3 2.8-1.3 3.8 0 .6.8 1.4 1.2 2.4 1.1 1.6-.2 2.8 1.1 2.7 2.7-.1 1 .2 1.8 1.1 2.4 1.3.9 1.3 2.8 0 3.8z"></path><path fill="#d30b49" d="M45.5-101.4c-.8-.6-1.2-1.4-1.1-2.4.2-1.6-1.1-2.8-2.7-2.7-1 .1-1.8-.2-2.4-1.1-.9-1.1-2.5-1.2-3.5-.3l.3.3c.6.8 1.4 1.2 2.4 1.1 1.6-.2 2.8 1.1 2.7 2.7-.1 1 .2 1.8 1.1 2.4 1.3.9 1.3 2.8 0 3.8-.8.6-1.2 1.4-1.1 2.4.2 1.6-1.1 2.8-2.7 2.7-1-.1-1.8.2-2.4 1.1l-.3.3c1 .9 2.6.8 3.5-.3.6-.8 1.4-1.2 2.4-1.1 1.6.2 2.8-1.1 2.7-2.7-.1-1 .2-1.8 1.1-2.4 1.3-1 1.3-2.9 0-3.8z"></path><path fill="#a6d856" d="M15.6-84.2S30-91.6 33.3-73.8c0 0-15.7 6.5-17.7-10.4z"></path><path fill="#93b744" d="M30.6-73.2s-.4.2-1.2.4c2.3-.3 3.9-1 3.9-1C30.8-87.5 21.6-86.2 17.6-85c4.5-.6 10.9.7 13 11.8z"></path><path fill="#a6d856" d="M59.4-90.1S45-97.5 41.7-79.7c0-.1 15.7 6.4 17.7-10.4z"></path><path fill="#93b744" d="M57.3-91c-1.8 12.4-11.1 11.6-15.4 10.6 0 .2-.1.4-.1.6 0 0 15.7 6.5 17.7-10.4-.1.1-.9-.4-2.2-.8z"></path><path fill="#2fb9ea" d="M46.4-46.5c0-5.5 3.8-13.1 3.8-13.1V-65H24.8v5.4s3.8 7.6 3.8 13.1h17.8z"></path><path fill="#19a0bf" d="M46.5-65v5.4s-3.8 7.6-3.8 13.1h3.6c0-5.5 3.8-13.1 3.8-13.1V-65h-3.6z"></path><path d="M27.7-80.5c-1.3-.9-3.2-.6-4.1.7-.3.4-.9.5-1.3.2-.2-.1-.3-.4-.4-.6 0-.2 0-.5.2-.7.1-.2.4-.3.6-.4s.5 0 .7.1c.5.3 1.1.2 1.4-.3.3-.5.2-1.1-.3-1.4-.6-.4-1.4-.6-2.2-.5-.4.1-.8.3-1.2.5l-1.1-.5c-.5-.3-1.1-.2-1.4.3-.3.5-.2 1.1.3 1.4l1.1.7c-.1.4-.1.8-.1 1.3.1.8.6 1.4 1.2 1.9 1.3.9 3.2.6 4.1-.7.3-.4.9-.5 1.3-.2.2.1.3.4.4.6s0 .5-.2.7c-.1.2-.4.3-.6.4-.2 0-.5 0-.7-.2-.5-.3-1.1-.2-1.4.3-.3.5-.2 1.1.3 1.4.5.3 1.1.5 1.7.5h.5c.4-.1.8-.3 1.2-.5l1.2.8c.2.1.4.2.6.2.3 0 .6-.2.8-.4.3-.5.2-1.1-.3-1.4l-1.1-.8c.1-.4.1-.8.1-1.3-.2-.9-.7-1.6-1.3-2.1zm23.1-8.1c-.7.4-1.2 1-1.4 1.8-.2.8-.1 1.5.3 2.2.3.4.1 1-.3 1.3-.2.1-.5.2-.7.1-.2-.1-.4-.2-.6-.4-.3-.4-.1-1 .3-1.3.5-.3.6-.9.4-1.4s-.9-.6-1.4-.4c-1.1.6-1.6 1.9-1.4 3l-1.2.7c-.5.3-.6.9-.4 1.4.2.3.5.5.9.5.2 0 .3 0 .5-.1l1.2-.7c.5.4 1.2.7 1.9.7.5 0 1-.1 1.5-.4 1.4-.8 1.9-2.6 1.1-4-.1-.2-.2-.5-.1-.7.1-.2.2-.4.4-.6.4-.3 1-.1 1.3.3.3.4.1 1-.3 1.3-.5.3-.6.9-.4 1.4.3.5.9.6 1.4.4 1.1-.6 1.6-1.9 1.4-3l1.2-.7c.5-.3.6-.9.4-1.4-.3-.5-.9-.6-1.4-.4l-1.2.7c-1-.8-2.3-.9-3.4-.3zm-10.5-9.1c0-1.6-1.3-2.8-2.8-2.8-.5 0-.8-.4-.8-.8s.4-.8.8-.8.8.4.8.8c0 .6.4 1 1 1s1-.4 1-1c0-1.2-.8-2.2-1.8-2.7v-1.3c0-.6-.4-1-1-1s-1 .4-1 1v1.3c-1.1.4-1.8 1.4-1.8 2.7 0 1.6 1.3 2.8 2.8 2.8.5 0 .8.4.8.8s-.4.8-.8.8-.8-.4-.8-.8c0-.6-.4-1-1-1s-1 .4-1 1c0 1.2.8 2.2 1.8 2.7v1.3c0 .6.4 1 1 1s1-.4 1-1V-95c1.1-.5 1.8-1.5 1.8-2.7z"></path><path d="M59.9-91c-.3-.1-6.4-3.2-12-.5-3.6 1.7-5.9 5.5-7.1 11.1l-2.3 1.1v-10.3c.7-.2 1.2-.6 1.7-1.2.4-.6.8-.8 1.5-.7 1.1.1 2.1-.2 2.8-1 .7-.7 1.1-1.7 1-2.8-.1-.7.1-1.1.7-1.5.9-.6 1.3-1.6 1.3-2.7s-.5-2-1.3-2.7c-.6-.4-.8-.8-.7-1.5.1-1.1-.2-2.1-1-2.8-.7-.7-1.8-1.1-2.8-1-.7.1-1.1-.1-1.5-.7-.6-.9-1.6-1.3-2.7-1.3s-2 .5-2.7 1.3c-.4.6-.8.8-1.5.7-1-.1-2.1.2-2.8 1-.7.7-1.1 1.7-1 2.8.1.7-.1 1.1-.7 1.5-.9.6-1.3 1.6-1.3 2.7s.5 2 1.3 2.7c.6.4.8.8.7 1.5-.1 1.1.2 2.1 1 2.8s1.7 1.1 2.8 1c.7-.1 1.1.1 1.5.7.4.6 1 1 1.7 1.2v16.3l-2.3-1.1c-1.1-5.6-3.5-9.3-7.1-11.1-5.5-2.7-11.7.4-12 .5-.4.2-.6.6-.5 1 .6 5.3 2.7 9 6 10.9 2 1.2 4.2 1.6 6.3 1.6 2.9 0 5.5-.8 6.4-1.1l3.2 1.5v5.2H24.8c-.6 0-1 .4-1 1v5.4c0 .2 0 .3.1.4 0 .1 3.7 7.4 3.7 12.6 0 .6.4 1 1 1h17.7c.6 0 1-.4 1-1 0-5.2 3.7-12.6 3.7-12.6.1-.1.1-.3.1-.4V-65c0-.6-.4-1-1-1H38.5v-11.2l3.2-1.5c1 .4 3.5 1.1 6.4 1.1 2 0 4.2-.4 6.3-1.6 3.3-1.9 5.3-5.6 6-10.9.1-.3-.2-.7-.5-.9zM21.6-74.9c-2.6-1.5-4.3-4.5-4.9-8.7 1.6-.6 5.8-2 9.5-.2 2.9 1.4 4.9 4.6 5.9 9.3-1.8.6-6.7 1.9-10.5-.4zm23.8 27.4H29.6c-.3-4.1-2.2-8.8-3.2-11.1h22.2c-1.1 2.3-2.9 7-3.2 11.1zM49.2-64v3.4H25.8V-64h23.4zM36.4-92.1c-.7-1-1.7-1.5-2.9-1.5H33c-.5 0-.9-.1-1.2-.4-.3-.3-.4-.7-.4-1.2.1-1.4-.3-2.5-1.5-3.3-.3-.3-.5-.7-.5-1.1s.2-.8.5-1.1c1.1-.8 1.6-2 1.5-3.3 0-.5.1-.9.4-1.2.3-.3.7-.4 1.2-.4 1.4.1 2.5-.3 3.3-1.5.5-.7 1.6-.7 2.2 0 .8 1.1 2 1.6 3.3 1.5.4 0 .9.1 1.2.4.3.3.4.7.4 1.2-.1 1.4.3 2.5 1.5 3.3.3.3.5.7.5 1.1s-.2.8-.5 1.1c-1.1.8-1.6 2-1.5 3.3 0 .5-.1.9-.4 1.2-.3.3-.7.4-1.2.4-1.4-.1-2.5.3-3.3 1.5-.4.7-1.6.7-2.1 0zm17 11.3c-3.8 2.2-8.7 1-10.6.4 1-4.8 3-7.9 5.9-9.3 3.7-1.8 8-.4 9.5.2-.5 4.2-2.2 7.2-4.8 8.7z"></path><path fill="#f73152" d="M126-80v-10.9h53.5V-80"></path><path fill="#d30b49" d="M173.8-90.9h5.8V-80h-5.8z"></path><path fill="#2fb9ea" d="M121.5-80h31l6.3-6.4h24.7v32.1h-62z"></path><path fill="#19a0bf" d="M177.5-86.4h6v32.1h-6z"></path><path d="M183.5-101.7h-24.6c-.3 0-.5.1-.7.3l-6.1 6.1h-30.5c-.6 0-1 .4-1 1v9.9c0 .6.4 1 1 1s1-.4 1-1v-8.9h30c.3 0 .5-.1.7-.3l6.1-6.1h23.2v12.3h-2v-3.5c0-.6-.4-1-1-1H126c-.6 0-1 .4-1 1v9.9h-3.5c-.6 0-1 .4-1 1v25.7c0 .6.4 1 1 1h62c.6 0 1-.4 1-1V-100.7c0-.6-.5-1-1-1zM127-89.9h51.5v2.5h-19.7c-.3 0-.5.1-.7.3L152-81h-25v-8.9zm55.5 34.6h-60V-79h30c.3 0 .5-.1.7-.3l6.1-6.1h23.2v30.1z"></path><path d="M143.7-88.6h-14c-.6 0-1 .4-1 1s.4 1 1 1h14c.6 0 1-.4 1-1s-.4-1-1-1zm-6.1 3.6h-7.9c-.6 0-1 .4-1 1s.4 1 1 1h7.9c.6 0 1-.4 1-1s-.4-1-1-1z"></path><path fill="#f73152" d="M-323 36.6h-15.4V11.2h61.8v25.4h-15.2"></path><path fill="#d30b49" d="M-281.8 11.2h5.2v25.4h-5.2z"></path><path fill="#bcbec0" d="M-323 27.7h-2.3c-2.2 0-4-1.8-4-4s1.8-4 4-4h35.9c2.2 0 4 1.8 4 4s-1.8 4-4 4h-2.3"></path><path fill="#a6d856" d="M-291.8 19.7v44.1H-323V19.7"></path><path fill="#2fb9ea" d="M-295.1 19.7v36.6c-2.3 0-4.2 1.9-4.2 4.2h-16.2c0-2.3-1.9-4.2-4.2-4.2V19.7"></path><path fill="#19a0bf" d="M-297.9 19.7v36.6h2.7V19.7h-2.7z"></path><circle cx="-307.4" cy="38" r="9.5" fill="#a6d856"></circle><path fill="#93b744" d="M-307.4 28.5c-.5 0-.9 0-1.4.1 4.6.7 8.2 4.6 8.2 9.4s-3.5 8.8-8.2 9.4c.4.1.9.1 1.4.1 5.3 0 9.5-4.3 9.5-9.5s-4.2-9.5-9.5-9.5z"></path><path d="M-307.4 48.5c5.8 0 10.5-4.7 10.5-10.5s-4.7-10.5-10.5-10.5-10.5 4.7-10.5 10.5 4.7 10.5 10.5 10.5zm0-19c4.7 0 8.5 3.8 8.5 8.5s-3.8 8.5-8.5 8.5-8.5-3.8-8.5-8.5 3.8-8.5 8.5-8.5z"></path><path d="M-309.4 41c1.7 0 3.1-1.4 3.1-3.1 0-.6.5-1.1 1.1-1.1.6 0 1.1.5 1.1 1.1 0 .6-.5 1.1-1.1 1.1-.6 0-1 .4-1 1s.4 1 1 1c1.3 0 2.5-.9 2.9-2.1h1.5c.6 0 1-.4 1-1s-.4-1-1-1h-1.5c-.4-1.2-1.5-2.1-2.9-2.1-1.7 0-3.1 1.4-3.1 3.1 0 .6-.5 1.1-1.1 1.1-.6 0-1.1-.5-1.1-1.1 0-.6.5-1.1 1.1-1.1.6 0 1-.4 1-1s-.4-1-1-1c-1.3 0-2.5.9-2.9 2.1h-1.5c-.6 0-1 .4-1 1s.4 1 1 1h1.5c.4 1.3 1.5 2.1 2.9 2.1z"></path><path d="M-276.6 10.2h-61.8c-.6 0-1 .4-1 1v25.4c0 .6.4 1 1 1h14.4v26.3c0 .6.4 1 1 1h31.2c.6 0 1-.4 1-1V37.6h14.2c.6 0 1-.4 1-1V11.2c0-.6-.5-1-1-1zM-324 26.7h-1.3c-1.6 0-3-1.3-3-3s1.3-3 3-3h1.3v6zm31.2 36.1H-322V20.7h1.3v35.6c0 .6.4 1 1 1 1.8 0 3.2 1.4 3.2 3.2 0 .3.1.5.3.7s.4.3.7.3h16.1c.3 0 .5-.1.7-.3s.3-.4.3-.7c0-1.8 1.4-3.2 3.2-3.2.6 0 1-.4 1-1V20.7h1.3v42.1zm-25.9-42.1h22.6v34.7c-2.1.4-3.7 2-4.1 4.1h-14.3c-.4-2.1-2-3.7-4.1-4.1V20.7zm29.2 0c1.6 0 3 1.3 3 3s-1.3 3-3 3h-1.3v-6h1.3zm11.9 14.9h-13.2v-6.9h1.3c2.7 0 5-2.2 5-5s-2.2-5-5-5h-35.9c-2.7 0-5 2.2-5 5s2.2 5 5 5h1.3v6.9h-13.4V12.2h59.8v23.4z"></path><path fill="#f73152" d="M50.3 60.1V9.3c0-1.5-1.2-2.7-2.7-2.7H15.7c-1.5 0-2.7 1.2-2.7 2.7v50.8h37.3z"></path><path fill="#bcbec0" d="m43 6.5-6.3 5H26.5l-6.2-5"></path><path fill="#d30b49" d="M46.2 9.3V60.2h4.2V9.3c0-1.5-1.2-2.7-2.7-2.7h-4.2c1.4-.1 2.7 1.2 2.7 2.7z"></path><path fill="#a6d856" d="M16.1 21.6H62v27.8H16.1z"></path><path fill="#2fb9ea" d="M19.1 35.5v-7.2c2.1 0 3.7-1.7 3.7-3.7h32.6c0 2.1 1.7 3.7 3.7 3.7v14.4c-2.1 0-3.7 1.7-3.7 3.7H22.8c0-2.1-1.7-3.7-3.7-3.7v-7.2z"></path><path fill="#19a0bf" d="M55.4 24.6h-4.1c0 2.1 1.7 3.7 3.7 3.7v14.4c-2.1 0-3.7 1.7-3.7 3.7h4.1c0-2.1 1.7-3.7 3.7-3.7V28.3c-2.1.1-3.7-1.6-3.7-3.7z"></path><circle cx="39.1" cy="35.5" r="8.5" fill="#a6d856"></circle><path fill="#93b744" d="M39.1 27c-.5 0-1.1.1-1.6.2 3.9.7 6.9 4.2 6.9 8.3s-3 7.6-6.9 8.3c.5.1 1 .2 1.6.2 4.7 0 8.5-3.8 8.5-8.5S43.8 27 39.1 27z"></path><path fill="#bcbec0" d="M50.3 60.1H12.9v5.7c0 1.5 1.2 2.7 2.7 2.7h31.9c1.5 0 2.7-1.2 2.7-2.7v-5.7z"></path><path d="M39.1 26c-5.2 0-9.5 4.2-9.5 9.5 0 5.2 4.2 9.5 9.5 9.5s9.5-4.2 9.5-9.5c0-5.2-4.3-9.5-9.5-9.5zm0 17c-4.1 0-7.5-3.4-7.5-7.5S35 28 39.1 28s7.5 3.4 7.5 7.5-3.4 7.5-7.5 7.5z"></path><path d="M39.1 32.9c.5 0 .8.4.8.8 0 .6.4 1 1 1s1-.4 1-1c0-1.2-.8-2.2-1.8-2.6v-1.3c0-.6-.4-1-1-1s-1 .4-1 1V31c-1.1.4-1.8 1.4-1.8 2.6 0 1.6 1.3 2.8 2.8 2.8.5 0 .8.4.8.8s-.4.8-.8.8-.8-.4-.8-.8c0-.6-.4-1-1-1s-1 .4-1 1c0 1.2.8 2.2 1.8 2.6v1.3c0 .6.4 1 1 1s1-.4 1-1V40c1.1-.4 1.8-1.4 1.8-2.6 0-1.6-1.3-2.8-2.8-2.8-.5 0-.8-.4-.8-.8s.4-.9.8-.9z"></path><path d="M62.1 20.6H51.3V9.3c0-2.1-1.7-3.7-3.7-3.7H15.7c-2.1 0-3.7 1.7-3.7 3.7v56.5c0 2.1 1.7 3.7 3.7 3.7h31.9c2.1 0 3.7-1.7 3.7-3.7V50.4H62c.6 0 1-.4 1-1V21.6c.1-.5-.4-1-.9-1zm-22-13.1-3.7 3h-9.5l-3.7-3h16.9zm9.2 58.3c0 1-.8 1.7-1.7 1.7H15.7c-1 0-1.7-.8-1.7-1.7v-4.7h35.4v4.7zm0-6.7H13.9V9.3c0-1 .8-1.7 1.7-1.7h4.3l6 4.8c.2.1.4.2.6.2h10.2c.2 0 .4-.1.6-.2l6-4.8h4.3c1 0 1.7.8 1.7 1.7v11.4H16.1c-.6 0-1 .4-1 1v27.8c0 .6.4 1 1 1h33.2v8.6zm11.8-10.7h-44V22.6H61v25.8z"></path><path d="M22.8 23.6c-.6 0-1 .4-1 1 0 1.5-1.2 2.7-2.7 2.7-.3 0-.5.1-.7.3s-.3.4-.3.7v14.3c0 .6.4 1 1 1 1.5 0 2.7 1.2 2.8 2.7 0 .6.4 1 1 1h32.5c.6 0 1-.4 1-1 0-1.5 1.2-2.7 2.7-2.7.6 0 1-.4 1-1V28.4c0-.3-.1-.5-.3-.7s-.4-.3-.7-.3a2.732 2.732 0 0 1-2.7-2.7c0-.6-.4-1-1-1H22.8zm35.3 5.6v12.5c-1.8.4-3.3 1.8-3.6 3.6H23.7c-.4-1.8-1.8-3.3-3.6-3.6V29.2c1.8-.4 3.3-1.8 3.6-3.6h30.7c.2.9.6 1.7 1.3 2.4.7.6 1.5 1.1 2.4 1.2zM26.4 65.1H37c.6 0 1-.4 1-1s-.4-1-1-1H26.4c-.6 0-1 .4-1 1s.4 1 1 1z"></path><path fill="#2fb9ea" d="M130.6 6.5h43.8v62h-43.8z"></path><path fill="#bcbec0" d="M134.6 10.5h35.8v14.1h-35.8z"></path><path fill="#a6d856" d="M134.6 30.8h8.3v8.1h-8.3zM162.1 30.8h8.3v8.1h-8.3zM148.3 30.8h8.3v8.1h-8.3zM134.6 42.4h8.3v8.1h-8.3zM148.3 42.4h8.3v8.1h-8.3zM134.6 54.7h8.3v8.1h-8.3zM148.3 54.7h8.3v8.1h-8.3z"></path><path d="M142.9 39.9h-8.3c-.6 0-1-.4-1-1v-8.1c0-.6.4-1 1-1h8.3c.6 0 1 .4 1 1v8.1c0 .6-.4 1-1 1zm-7.3-2h6.3v-6.1h-6.3v6.1zm34.8 2h-8.3c-.6 0-1-.4-1-1v-8.1c0-.6.4-1 1-1h8.3c.6 0 1 .4 1 1v8.1c0 .6-.5 1-1 1zm-7.3-2h6.3v-6.1h-6.3v6.1zm-6.4 2h-8.3c-.6 0-1-.4-1-1v-8.1c0-.6.4-1 1-1h8.3c.6 0 1 .4 1 1v8.1c0 .6-.5 1-1 1zm-7.4-2h6.3v-6.1h-6.3v6.1zm-6.4 13.6h-8.3c-.6 0-1-.4-1-1v-8.1c0-.6.4-1 1-1h8.3c.6 0 1 .4 1 1v8.1c0 .5-.4 1-1 1zm-7.3-2h6.3v-6.1h-6.3v6.1zm21.1 2h-8.3c-.6 0-1-.4-1-1v-8.1c0-.6.4-1 1-1h8.3c.6 0 1 .4 1 1v8.1c0 .5-.5 1-1 1zm-7.4-2h6.3v-6.1h-6.3v6.1zm-6.4 14.3h-8.3c-.6 0-1-.4-1-1v-8.1c0-.6.4-1 1-1h8.3c.6 0 1 .4 1 1v8.1c0 .6-.4 1-1 1zm-7.3-2h6.3v-6.1h-6.3v6.1zm21.1 2h-8.3c-.6 0-1-.4-1-1v-8.1c0-.6.4-1 1-1h8.3c.6 0 1 .4 1 1v8.1c0 .6-.5 1-1 1zm-7.4-2h6.3v-6.1h-6.3v6.1z"></path><path fill="#f73152" d="M162.1 42.4h8.3v20.5h-8.3z"></path><path d="M174.4 5.5h-43.8c-.6 0-1 .4-1 1v62c0 .6.4 1 1 1h43.8c.6 0 1-.4 1-1v-62c0-.6-.5-1-1-1zm-1 62h-41.8v-60h41.8v60z"></path><path d="M134.6 25.6h35.8c.6 0 1-.4 1-1V10.5c0-.6-.4-1-1-1h-35.8c-.6 0-1 .4-1 1v14.1c0 .6.5 1 1 1zm1-14.1h33.8v12.1h-33.8V11.5z"></path><path d="M167.4 12.5H161c-.6 0-1 .4-1 1v8.1c0 .6.4 1 1 1h6.4c.6 0 1-.4 1-1v-8.1c0-.6-.5-1-1-1zm-1 8.1H162v-6.1h4.4v6.1zm-31.8 19.3h8.3c.6 0 1-.4 1-1v-8.1c0-.6-.4-1-1-1h-8.3c-.6 0-1 .4-1 1v8.1c0 .6.5 1 1 1zm1-8.1h6.3v6.1h-6.3v-6.1zm34.8-2h-8.3c-.6 0-1 .4-1 1v8.1c0 .6.4 1 1 1h8.3c.6 0 1-.4 1-1v-8.1c0-.5-.5-1-1-1zm-1 8.1h-6.3v-6.1h6.3v6.1zm-12.7-8.1h-8.3c-.6 0-1 .4-1 1v8.1c0 .6.4 1 1 1h8.3c.6 0 1-.4 1-1v-8.1c0-.5-.5-1-1-1zm-1 8.1h-6.3v-6.1h6.3v6.1zm-21.1 13.6h8.3c.6 0 1-.4 1-1v-8.1c0-.6-.4-1-1-1h-8.3c-.6 0-1 .4-1 1v8.1c0 .5.5 1 1 1zm1-8.1h6.3v6.1h-6.3v-6.1zm21.1-2h-8.3c-.6 0-1 .4-1 1v8.1c0 .6.4 1 1 1h8.3c.6 0 1-.4 1-1v-8.1c0-.6-.5-1-1-1zm-1 8.1h-6.3v-6.1h6.3v6.1zm-21.1 14.3h8.3c.6 0 1-.4 1-1v-8.1c0-.6-.4-1-1-1h-8.3c-.6 0-1 .4-1 1v8.1c0 .6.5 1 1 1zm1-8.1h6.3v6.1h-6.3v-6.1zm34.8-14.3h-8.3c-.6 0-1 .4-1 1v20.5c0 .6.4 1 1 1h8.3c.6 0 1-.4 1-1V42.4c0-.6-.5-1-1-1zm-1 20.4h-6.3V43.4h6.3v18.4zm-12.7-8.1h-8.3c-.6 0-1 .4-1 1v8.1c0 .6.4 1 1 1h8.3c.6 0 1-.4 1-1v-8.1c0-.5-.5-1-1-1zm-1 8.1h-6.3v-6.1h6.3v6.1z"></path><path fill="#f73152" d="M-313.7 166.2c0-9.9-5.2-33.3-5.2-33.3 0-6.3 5.1-11.4 11.4-11.4s11.4 5.1 11.4 11.4c0 0-5.2 23.3-5.2 33.3"></path><path fill="#d30b49" d="M-307.6 121.5c-.7 0-1.4.1-2.1.2 5.3 1 9.3 5.6 9.3 11.2 0 0-5.2 23.3-5.2 33.3h4.2c0-9.9 5.2-33.3 5.2-33.3 0-6.3-5.1-11.4-11.4-11.4z"></path><path fill="#bcbec0" d="M-307.6 136.3c-1.9 0-3.4-1.5-3.4-3.4s1.5-3.4 3.4-3.4 3.4 1.5 3.4 3.4-1.5 3.4-3.4 3.4z"></path><path fill="#a6d856" d="M-295.7 179h-23.6c-.7 0-1.3-.6-1.3-1.3v-6.4c0-.7.6-1.3 1.3-1.3h23.6c.7 0 1.3.6 1.3 1.3v6.4c0 .7-.6 1.3-1.3 1.3z"></path><path fill="#93b744" d="M-295.7 169.9h-4c.7 0 1.3.6 1.3 1.3v6.4c0 .7-.6 1.3-1.3 1.3h4c.7 0 1.3-.6 1.3-1.3v-6.4c0-.7-.6-1.3-1.3-1.3z"></path><path fill="#2fb9ea" d="M-297 179v4.5h-21V179"></path><path fill="#19a0bf" d="M-301.3 179h4.3v4.5h-4.3z"></path><path fill="#2fb9ea" d="M-315.7 169.9v-3.7h16.3v3.7"></path><path fill="#19a0bf" d="M-302.6 166.2h3.3v3.7h-3.3z"></path><path d="M-307.6 128.5c-2.4 0-4.4 2-4.4 4.4s2 4.4 4.4 4.4 4.4-2 4.4-4.4-1.9-4.4-4.4-4.4zm0 6.8c-1.3 0-2.4-1.1-2.4-2.4s1.1-2.4 2.4-2.4 2.4 1.1 2.4 2.4-1.1 2.4-2.4 2.4z"></path><path d="M-295.7 168.9h-2.7v-2.7c0-.6-.4-1-1-1h-1c.3-10.2 5.1-31.8 5.2-32.1v-.2c0-6.8-5.6-12.4-12.4-12.4s-12.4 5.6-12.4 12.4v.2c.1.2 4.9 21.8 5.2 32.1h-1c-.6 0-1 .4-1 1v2.7h-2.6c-1.3 0-2.3 1-2.3 2.3v6.4c0 1.3 1 2.3 2.3 2.3h.3v3.5c0 .6.4 1 1 1h21c.6 0 1-.4 1-1V180h.3c1.3 0 2.3-1 2.3-2.3v-6.4c.1-1.4-.9-2.4-2.2-2.4zm-22.2-36.1c.1-5.7 4.7-10.3 10.4-10.3s10.3 4.6 10.4 10.3c-.4 1.9-4.9 22.3-5.2 32.4h-10.3c-.4-10.1-4.9-30.5-5.3-32.4zm3.2 34.4h14.3v1.7h-14.3v-1.7zm16.7 15.3h-19V180h19v2.5zm2.6-4.9c0 .2-.1.3-.3.3h-23.6c-.2 0-.3-.1-.3-.3v-6.4c0-.2.1-.3.3-.3h23.6c.2 0 .3.1.3.3v6.4z"></path><path fill="#2fb9ea" d="M-205 144.3v-7c0-6.5 4.8-12.2 11.3-12.8 7.4-.7 13.7 5.2 13.7 12.4v11.8h3V137c0-8.6-6.9-15.5-15.5-15.5S-208 128.4-208 137v7.3c0 .8.7 1.5 1.5 1.5s1.5-.6 1.5-1.5z"></path><path fill="#a6d856" d="m-196 166.2-2.2 9.3h11.6l-2.2-9.3c1.4-1.1 2.2-2.7 2.2-4.5 0-3.2-2.6-5.8-5.8-5.8s-5.8 2.6-5.8 5.8c-.1 1.8.8 3.4 2.2 4.5z"></path><path fill="#93b744" d="M-189 166.2c1.4-1.1 2.2-2.7 2.2-4.5 0-3.2-2.6-5.8-5.8-5.8-.4 0-.9.1-1.3.2 2.6.6 4.5 2.9 4.5 5.6 0 1.8-.9 3.5-2.2 4.5l2.2 9.3h2.6l-2.2-9.3z"></path><path d="M-170.6 147.8h-5.4V137c0-9.1-7.4-16.5-16.5-16.5S-209 127.9-209 137v7.3c0 1.4 1.1 2.5 2.5 2.5s2.5-1.1 2.5-2.5v-7c0-6.1 4.6-11.3 10.4-11.8 3.3-.3 6.4.7 8.8 2.9 2.4 2.2 3.8 5.3 3.8 8.5v10.8h-33.4c-.6 0-1 .4-1 1V180c0 .5.3.9.8 1 .7.1 16.5 3.4 22.1 3.4s21.4-3.2 22.1-3.4c.5-.1.8-.5.8-1v-31.3c0-.4-.4-.9-1-.9zm-12.8-20.8c-2.8-2.6-6.5-3.8-10.4-3.5-6.8.6-12.2 6.7-12.2 13.8v7c0 .3-.2.5-.5.5s-.5-.2-.5-.5V137c0-8 6.5-14.5 14.5-14.5S-178 129-178 137v10.8h-1V137c0-3.8-1.6-7.4-4.4-10zm11.8 52.3c-3.3.7-16.2 3.2-20.9 3.2s-17.6-2.5-20.9-3.2v-29.5h41.8v29.5z"></path><path d="M-212.4 151.8v25.9c0 .5.3.9.8 1 3.4.7 14.9 2.8 19.1 2.8 4.2 0 15.7-2.2 19.1-2.8.5-.1.8-.5.8-1v-25.9c0-.6-.4-1-1-1h-37.8c-.6 0-1 .5-1 1zm2 1h35.8v24c-6.8 1.3-14.8 2.6-17.9 2.6-3.1 0-11.1-1.3-17.9-2.6v-24z"></path><path d="M-186 176.1c.2-.2.3-.6.2-.9l-2.1-8.7c1.3-1.3 2.1-3 2.1-4.9 0-3.7-3-6.8-6.8-6.8s-6.8 3-6.8 6.8c0 1.9.8 3.6 2.1 4.9l-2.1 8.7c-.1.3 0 .6.2.9.2.2.5.4.8.4h11.5c.5-.1.7-.2.9-.4zm-11-1.7 1.9-8c.1-.3 0-.5-.1-.8l-.3-.3c-1.1-.9-1.8-2.3-1.8-3.7 0-2.6 2.1-4.8 4.8-4.8s4.8 2.1 4.8 4.8c0 1.5-.7 2.8-1.8 3.7-.3.2-.5.6-.4 1.1l1.9 8h-9z"></path><path fill="#2fb9ea" d="M152.5 183.5c19-11 23.1-21.6 24.3-31 .9-6.7 0-26.8 0-26.8-13.7-.3-24.3-4.2-24.3-4.2s-10.6 3.9-24.3 4.2c0 0-.9 20.2 0 26.8 1.2 9.4 5.3 20 24.3 31z"></path><path fill="#19a0bf" d="M176.8 125.7c-13.7-.3-24.3-4.2-24.3-4.2s-2.4.9-6.5 1.9c1.5.4 2.4.7 2.4.7s10.6 3.9 24.3 4.2c0 0 .9 20.2 0 26.8-1.1 8.5-4.5 18-19.3 27.9 18.3-10.8 22.2-21.2 23.4-30.5.9-6.7 0-26.8 0-26.8z"></path><path fill="#f73152" d="M165.8 148.6c-1.4 1.1-2 2.3-1.8 4 .3 2.6-1.8 4.7-4.4 4.4-1.7-.2-3 .4-4 1.8-1.6 2.1-4.7 2.1-6.2 0-1.1-1.4-2.3-2-4-1.8-2.6.3-4.7-1.8-4.4-4.4.2-1.7-.4-3-1.8-4-2.1-1.6-2.1-4.7 0-6.2 1.4-1.1 2-2.3 1.8-4-.3-2.6 1.8-4.7 4.4-4.4 1.7.2 3-.4 4-1.8 1.6-2.1 4.7-2.1 6.2 0 1.1 1.4 2.3 2 4 1.8 2.6-.3 4.7 1.8 4.4 4.4-.2 1.7.4 3 1.8 4 2.1 1.5 2.1 4.6 0 6.2z"></path><path fill="#d30b49" d="M165.8 142.4c-1.4-1.1-2-2.3-1.8-4 .3-2.6-1.8-4.7-4.4-4.4-1.7.2-3-.4-4-1.8-1.2-1.6-3.4-2-5-1.1.5.3.9.6 1.2 1.1 1.1 1.4 2.3 2 4 1.8 2.6-.3 4.7 1.8 4.4 4.4-.2 1.7.4 3 1.8 4 2.1 1.6 2.1 4.7 0 6.2-1.4 1.1-2 2.3-1.8 4 .3 2.6-1.8 4.7-4.4 4.4-1.7-.2-3 .4-4 1.8-.3.5-.8.8-1.2 1.1 1.6.9 3.8.6 5-1.1 1.1-1.4 2.3-2 4-1.8 2.6.3 4.7-1.8 4.4-4.4-.2-1.7.4-3 1.8-4 2.1-1.6 2.1-4.7 0-6.2z"></path><path d="M152.5 140.3c1.1 0 2.1.9 2.1 2.1 0 .6.4 1 1 1s1-.4 1-1c0-1.9-1.3-3.5-3.1-3.9v-2.6c0-.6-.4-1-1-1s-1 .4-1 1v2.6c-1.8.4-3.1 2-3.1 3.9 0 2.2 1.8 4.1 4.1 4.1 1.1 0 2.1.9 2.1 2.1s-.9 2.1-2.1 2.1-2.1-.9-2.1-2.1c0-.6-.4-1-1-1s-1 .4-1 1c0 1.9 1.3 3.5 3.1 3.9v2.7c0 .6.4 1 1 1s1-.4 1-1v-2.7c1.8-.4 3.1-2 3.1-3.9 0-2.2-1.8-4.1-4.1-4.1-1.1 0-2.1-.9-2.1-2.1s1-2.1 2.1-2.1z"></path><path d="M166.4 141.6c-1.1-.8-1.5-1.8-1.4-3.1.2-1.5-.3-3-1.4-4.1-1.1-1.1-2.6-1.6-4.1-1.4-1.3.1-2.3-.3-3.1-1.4-.9-1.3-2.4-2-3.9-2s-3 .7-3.9 2c-.8 1.1-1.8 1.5-3.1 1.4-1.5-.2-3 .3-4.1 1.4-1.1 1.1-1.6 2.6-1.4 4.1.1 1.3-.3 2.3-1.4 3.1-1.3.9-2 2.4-2 3.9s.7 3 2 3.9c1.1.8 1.5 1.8 1.4 3.1-.2 1.5.3 3 1.4 4.1 1.1 1.1 2.6 1.6 4.1 1.4 1.3-.1 2.3.3 3.1 1.4.9 1.3 2.4 2 3.9 2s3-.7 3.9-2c.8-1.1 1.8-1.5 3.1-1.4 1.6.2 3-.3 4.1-1.4 1.1-1.1 1.6-2.6 1.4-4.1-.1-1.3.3-2.3 1.4-3.1 1.3-.9 2-2.4 2-3.9s-.7-3-2-3.9zm-1.2 6.2c-1.7 1.3-2.4 2.9-2.2 4.9.1.9-.2 1.8-.8 2.5-.6.6-1.5.9-2.5.8-2-.2-3.6.5-4.9 2.2-.6.7-1.4 1.2-2.3 1.2s-1.8-.4-2.3-1.2c-1.1-1.5-2.5-2.2-4.2-2.2h-.7c-1 .1-1.8-.2-2.5-.8-.6-.6-.9-1.5-.8-2.5.2-2-.5-3.6-2.2-4.9-.7-.6-1.2-1.4-1.2-2.3 0-.9.4-1.8 1.2-2.3 1.7-1.3 2.4-2.9 2.2-4.9-.1-.9.2-1.8.8-2.5.6-.6 1.5-.9 2.5-.8 2 .2 3.6-.5 4.9-2.2.6-.7 1.4-1.2 2.3-1.2s1.8.4 2.3 1.2c1.3 1.7 2.9 2.4 4.9 2.2.9-.1 1.8.2 2.5.8.6.6.9 1.5.8 2.5-.2 2 .5 3.6 2.2 4.9.7.6 1.2 1.4 1.2 2.3 0 .9-.4 1.8-1.2 2.3z"></path><path d="M177.8 125.6c0-.5-.5-.9-1-1-13.3-.2-23.9-4.1-24-4.1-.2-.1-.5-.1-.7 0-.1 0-10.6 3.9-24 4.1-.5 0-1 .4-1 1 0 .8-.9 20.3 0 27 1.2 9.3 5.1 20.4 24.8 31.7.2.1.3.1.5.1s.3 0 .5-.1c19.7-11.4 23.6-22.4 24.8-31.7.9-6.6.1-26.1.1-27zm-2 26.8c-1.1 8.7-4.8 19.1-23.3 30-18.5-10.8-22.2-21.2-23.3-30-.7-5.7-.2-21.7 0-25.7 12-.4 21.4-3.4 23.3-4.1 1.9.7 11.3 3.7 23.3 4.1.2 4 .7 20 0 25.7z"></path><path fill="#2fb9ea" d="M-310.9 298.5h-9.2v-43.9h9.2v16.2"></path><path fill="#a6d856" d="M-316.5 274.3h39.9v24.1h-39.9z"></path><path fill="#2fb9ea" d="M-313.9 286.4v-6.2c1.8 0 3.3-1.5 3.3-3.3h28.2c0 1.8 1.5 3.3 3.3 3.3v12.4c-1.8 0-3.3 1.5-3.3 3.3h-28.2c0-1.8-1.5-3.3-3.3-3.3v-6.2zM-338.4 268.4h9.2v30.1h-9.2z"></path><path fill="#2fb9ea" d="M-329.3 261h9.2v37.4h-9.2zM-301.7 250.7h9.2v20h-9.2z"></path><path fill="#19a0bf" d="M-295.9 250.7h3.3v20h-3.3zM-314.2 254.3h3.3v20h-3.3zM-323.4 261h3.3v37.4h-3.3zM-332.6 268.4h3.3v30.1h-3.3z"></path><path fill="#2fb9ea" d="M-310.9 245.6h-2.9l7.5-9.1 7.5 9.1h-2.9v25.1h-9.2z"></path><path fill="#19a0bf" d="m-306.3 236.5-1.5 1.8 3.9 5.3v27.1h2.2v-25.1h2.9z"></path><circle cx="-296.6" cy="286.4" r="7.4" fill="#a6d856"></circle><path fill="#93b744" d="M-296.6 279c-.5 0-1.1.1-1.6.2 3.3.7 5.8 3.7 5.8 7.2s-2.5 6.5-5.8 7.2c.5.1 1 .2 1.6.2 4.1 0 7.4-3.3 7.4-7.4 0-4.1-3.3-7.4-7.4-7.4z"></path><path d="M-296.6 294.8c4.6 0 8.4-3.8 8.4-8.4s-3.8-8.4-8.4-8.4c-4.6 0-8.4 3.8-8.4 8.4s3.8 8.4 8.4 8.4zm0-14.8c3.5 0 6.4 2.9 6.4 6.4s-2.9 6.4-6.4 6.4-6.4-2.9-6.4-6.4 2.9-6.4 6.4-6.4z"></path><path d="M-299.1 288c0 1.1.7 2 1.6 2.4v1c0 .6.4 1 1 1s1-.4 1-1v-1c.9-.4 1.6-1.3 1.6-2.4 0-.9-.5-1.7-1.2-2.2.6.1 1.2-.3 1.2-1 0-1.1-.7-2-1.6-2.4v-1c0-.6-.4-1-1-1s-1 .4-1 1v1c-.9.4-1.6 1.3-1.6 2.4 0 .9.5 1.7 1.2 2.2-.6-.1-1.2.4-1.2 1zm3.1-3.2c0 .3.1.6.3.8-.3-.1-.6-.2-.9-.2-.3 0-.6-.3-.6-.6s.3-.6.6-.6c.4 0 .6.3.6.6zm-.6 2.6c.3 0 .6.3.6.6s-.3.6-.6.6-.6-.3-.6-.6-.1-.6-.3-.8c.3.1.6.2.9.2z"></path><path d="M-276.6 273.3h-39.9c-.6 0-1 .4-1 1v23.1h-1.6v-41.8h7.2v15.1c0 .6.4 1 1 1H-292.6c.6 0 1-.4 1-1v-20c0-.6-.4-1-1-1h-8.2v-3.2h1.9c.4 0 .7-.2.9-.6.2-.4.1-.8-.1-1.1l-7.5-9.1c-.4-.5-1.2-.5-1.5 0l-7.5 9.1c-.2.3-.3.7-.1 1.1s.5.6.9.6h1.9v7.1h-8.2c-.6 0-1 .4-1 1v5.4h-8.2c-.6 0-1 .4-1 1v6.3h-8.2c-.6 0-1 .4-1 1v30.1c0 .6.4 1 1 1h61.8c.6 0 1-.4 1-1v-24.1c.1-.5-.3-1-.9-1zm-17-21.6v18h-7.2v-18h7.2zm-12.7-13.6 5.4 6.5h-.8c-.6 0-1 .4-1 1v24.2h-7.2v-24.2c0-.6-.4-1-1-1h-.8l5.4-6.5zm-31.1 31.3h7.2v28.1h-7.2v-28.1zm9.1-1V262h7.2v35.4h-7.2v-29zm50.7 29.1h-37.9v-22.1h37.9v22.1z"></path><path d="M-313.9 293.6c1.2 0 2.3 1 2.3 2.3 0 .6.4 1 1 1h28.3c.6 0 1-.4 1-1 0-1.2 1-2.3 2.3-2.3.6 0 1-.4 1-1v-12.5c0-.6-.4-1-1-1-1.2 0-2.3-1-2.3-2.3 0-.6-.4-1-1-1h-28.3c-.6 0-1 .4-1 1 0 1.2-1 2.3-2.3 2.3-.6 0-1 .4-1 1v12.5c0 .6.4 1 1 1zm1-12.5c1.5-.4 2.8-1.6 3.1-3.1h26.5c.4 1.5 1.6 2.8 3.1 3.1v10.7c-1.5.4-2.8 1.6-3.1 3.1h-26.5c-.4-1.5-1.6-2.8-3.1-3.1v-10.7z"></path><path fill="#f73152" d="M-101.2 172.8c-4.7-5.4-7.5-12.5-7.5-20.3 0-17.1 13.9-31 31-31s31 13.9 31 31-13.9 31-31 31c-7.7 0-14.8-2.8-20.3-7.5"></path><path fill="#a6d856" d="M-96.9 138c4.4-5.8 11.3-9.5 19.1-9.5 3.7 0 7.3.9 10.5 2.4l4.5 2.8c5.5 4.4 9 11.2 9 18.8 0 13.2-10.8 24-24 24s-24-10.8-24-24c0-3.5.7-6.8 2.1-9.8"></path><path fill="#2fb9ea" d="M-82.9 136.3c-6.9 2.2-11.9 8.6-11.9 16.2 0 9.4 7.6 17 17 17 7.6 0 14.1-5 16.2-12l.8-5c0-9.4-7.6-17-17-17"></path><path d="M-77.8 156c-.7 0-1.3-.6-1.3-1.2s-.4-1-1-1-1 .4-1 1c0 1.4.9 2.7 2.3 3.1v1.8c0 .6.4 1 1 1s1-.4 1-1v-1.8c1.3-.4 2.2-1.6 2.2-3.1 0-1.8-1.5-3.3-3.2-3.3-.7 0-1.3-.6-1.3-1.3 0-.7.6-1.2 1.3-1.2.7 0 1.2.6 1.2 1.2s.4 1 1 1 1-.4 1-1c0-1.4-.9-2.7-2.2-3.1v-1.7c0-.6-.4-1-1-1s-1 .4-1 1v1.7c-1.3.4-2.3 1.6-2.3 3.1 0 1.8 1.5 3.3 3.3 3.3.7 0 1.2.6 1.2 1.3.1.6-.5 1.2-1.2 1.2z"></path><path d="M-77.8 120.5c-17.6 0-32 14.4-32 32 0 7.7 2.8 15.1 7.8 20.9.4.4 1 .5 1.4.1.4-.4.5-1 .1-1.4-4.7-5.4-7.3-12.4-7.3-19.6 0-16.2 12.9-29.4 29-30v5c-7.5.3-14.3 3.9-18.9 9.9 0 0 0 .1-.1.2 0 .1-.1.1-.1.2v.4c0 .1 0 .1.1.2 0 .1 0 .1.1.2 0 .1.1.1.1.2l.1.1 4.9 3.4c-2 2.9-3.2 6.5-3.2 10.2 0 9.9 8.1 18 18 18 7.9 0 14.8-5.1 17.2-12.7.2-.5-.1-1.1-.7-1.3-.5-.2-1.1.1-1.3.7-2.1 6.7-8.2 11.3-15.3 11.3-8.5 0-15.4-6.6-15.9-15h4.5c.2 2.7 1.4 5.2 3.3 7.1.4.4 1 .4 1.4 0s.4-1 0-1.4c-1.8-1.8-2.8-4.2-2.8-6.7 0-5.2 4.2-9.5 9.5-9.5s9.5 4.2 9.5 9.5c0 5.2-4.2 9.5-9.5 9.5-1.2 0-2.4-.2-3.5-.7-.5-.2-1.1 0-1.3.6-.2.5 0 1.1.6 1.3 1.3.5 2.8.8 4.2.8 6.3 0 11.5-5.1 11.5-11.5 0-6-4.6-10.9-10.5-11.4v-4.6c8.4.5 15 7.5 15 15.9 0 .6.4 1 1 1s1-.4 1-1c0-5.6-2.5-10.5-6.5-13.9l3.5-3.5c5.1 4.4 8 10.7 8 17.4 0 12.7-10.3 23-23 23s-23-10.3-23-23c0-3.3.7-6.4 2-9.4.2-.5 0-1.1-.5-1.3s-1.1 0-1.3.5c-1.4 3.2-2.2 6.6-2.2 10.2 0 13.6 11 24.8 24.6 25v5c-7.1-.1-13.8-2.7-19.2-7.3-.4-.4-1.1-.3-1.4.1-.4.4-.3 1 .1 1.4 5.8 5 13.2 7.8 20.9 7.8h.7c17.3-.4 31.3-14.6 31.3-32 .1-17.5-14.2-31.9-31.9-31.9zm15.6 12.5s-.1 0-.1-.1c-.1 0-.1-.1-.2-.1H-63.1c-.1 0-.1 0-.2.1-.1 0-.1.1-.2.1 0 0-.1 0-.1.1l-4.4 4.4c-2.8-1.9-6.2-2.9-9.8-2.9-.6 0-1 .4-1 1v5.6c-5.5.5-9.9 4.9-10.4 10.4h-4.6c.2-3.3 1.4-6.4 3.3-8.8 1.9-2.5 4.6-4.4 7.8-5.4.5-.2.8-.7.7-1.3-.2-.5-.7-.8-1.3-.7-3.3 1-6.1 2.9-8.2 5.4l-4.1-2.9c4.4-5.3 10.8-8.3 17.7-8.3 3.5 0 6.9.8 10 2.3.5.2 1.1 0 1.3-.5.2-.5 0-1.1-.5-1.3-3.1-1.5-6.4-2.3-9.9-2.5v-5c15.7.5 28.5 13.2 29 29h-5c-.1-7.4-3.5-14.1-9.2-18.6zm-14 49.5v-5c12.7-.8 22.9-11.1 23.4-23.9h5c-.5 15.5-12.9 28.1-28.4 28.9z"></path><path fill="#2fb9ea" d="M-164.4 286.2h-56.1c-1.6 0-2.9-1.3-2.9-2.9v-31.6c0-1.6 1.3-2.9 2.9-2.9h56.1c1.6 0 2.9 1.3 2.9 2.9v31.6c0 1.6-1.3 2.9-2.9 2.9z"></path><path fill="#19a0bf" d="M-164.4 248.8h-6.2c1.6 0 2.9 1.3 2.9 2.9v31.6c0 1.6-1.3 2.9-2.9 2.9h6.2c1.6 0 2.9-1.3 2.9-2.9v-31.6c0-1.6-1.3-2.9-2.9-2.9z"></path><path fill="#f73152" d="M-223.5 254.8h62v7.3h-62z"></path><path fill="#d30b49" d="M-172.9 254.8h11.3v7.3h-11.3z"></path><path fill="#f73152" d="m-180.5 276.3-2.4 2.4-4.6-4.7 4.6-4.7 2.4 2.3M-173.462 269.216l4.667 4.667-4.667 4.666-4.667-4.667z"></path><path fill="#f73152" d="m-175.8 276.3-2.4 2.3-4.7-4.7 4.7-4.7 2.4 2.4"></path><path fill="#a6d856" d="M-218.6 268.4h22.9v3.5h-22.9zM-218.6 276h13.3v3.5h-13.3z"></path><path d="M-164.4 247.8h-56.1c-2.2 0-3.9 1.8-3.9 3.9v31.6c0 2.2 1.8 3.9 3.9 3.9h56.1c2.2 0 3.9-1.8 3.9-3.9v-31.6c0-2.1-1.8-3.9-3.9-3.9zm-56.2 2h56.1c1.1 0 1.9.9 1.9 1.9v2.1h-60v-2.1c.1-1 1-1.9 2-1.9zm58.1 11.3h-60v-5.3h60v5.3zm-1.9 24.1h-56.1c-1.1 0-1.9-.9-1.9-1.9v-20.2h60v20.2c-.1 1-1 1.9-2 1.9z"></path><path d="M-172.8 268.5c-.4-.4-1-.4-1.4 0l-1.6 1.6-1.6-1.6c-.2-.2-.4-.3-.7-.3s-.5.1-.7.3l-1.7 1.7-1.6-1.6c-.4-.4-1-.4-1.4 0l-4.7 4.7c-.2.2-.3.4-.3.7s.1.5.3.7l4.7 4.7c.2.2.5.3.7.3s.5-.1.7-.3l1.7-1.7 1.6 1.6c.2.2.5.3.7.3s.5-.1.7-.3l1.6-1.6 1.6 1.6c.2.2.5.3.7.3s.5-.1.7-.3l4.7-4.7c.2-.2.3-.4.3-.7s-.1-.5-.3-.7l-4.7-4.7zm-10.1 8.8-3.3-3.3 3.3-3.3.9.9-1.6 1.6c-.4.4-.4 1 0 1.4l1.7 1.7-1 1zm4.7-.1-3.3-3.3 3.3-3.3.9.9-1.6 1.6c-.4.4-.4 1 0 1.4l1.6 1.6-.9 1.1zm4.7 0-3.3-3.3 1.6-1.6 1.6-1.6 3.3 3.3-3.2 3.2zm-22.2-9.8h-22.9c-.6 0-1 .4-1 1v3.5c0 .6.4 1 1 1h22.9c.6 0 1-.4 1-1v-3.5c0-.6-.4-1-1-1zm-1 3.5h-20.9v-1.5h20.9v1.5zm-8.6 4.1h-13.3c-.6 0-1 .4-1 1v3.5c0 .6.4 1 1 1h13.3c.6 0 1-.4 1-1V276c0-.5-.4-1-1-1zm-1 3.5h-11.3V277h11.3v1.5z"></path><path fill="#2fb9ea" d="m-77.9 276.5-19.6 19.7.9-11.9-11.9.9 16.5-16.5M-77.1 276.5l19.6 19.7-.9-11.9 11.9.9-16.5-16.5"></path><path fill="#19a0bf" d="m-65.7 271.4 13.4 13.4 5.8.4-16.5-16.5z"></path><path fill="#2fb9ea" d="m-61.1 287 .5 6.1 3.1 3.1-.7-9z"></path><path fill="#f73152" d="M-60.6 261.6c-1.8 1.3-2.5 2.9-2.3 5.1.4 3.3-2.3 6-5.6 5.6-2.1-.2-3.7.5-5.1 2.3-2 2.7-5.9 2.7-7.9 0-1.3-1.8-2.9-2.5-5.1-2.3-3.3.4-6-2.3-5.6-5.6.2-2.1-.5-3.7-2.3-5.1-2.7-2-2.7-5.9 0-7.9 1.8-1.3 2.5-2.9 2.3-5.1-.4-3.3 2.3-6 5.6-5.6 2.1.2 3.7-.5 5.1-2.3 2-2.7 5.9-2.7 7.9 0 1.3 1.8 2.9 2.5 5.1 2.3 3.3-.4 6 2.3 5.6 5.6-.2 2.1.5 3.7 2.3 5.1 2.6 2 2.6 5.9 0 7.9z"></path><circle cx="-77.5" cy="257.6" r="12.4" fill="#a6d856"></circle><path fill="#93b744" d="M-77.5 245.2c-.8 0-1.5.1-2.2.2 5.8 1 10.2 6.1 10.2 12.2s-4.4 11.2-10.2 12.2c.7.1 1.5.2 2.2.2 6.9 0 12.4-5.6 12.4-12.4s-5.5-12.4-12.4-12.4z"></path><path d="M-77.5 262.7c-1.1 0-2-.9-2-2 0-.6-.4-1-1-1s-1 .4-1 1c0 1.9 1.3 3.4 3 3.9v2.6c0 .6.4 1 1 1s1-.4 1-1v-2.6c1.7-.4 3-2 3-3.9 0-2.2-1.8-4-4-4-1.1 0-2-.9-2-2s.9-2 2-2 2 .9 2 2c0 .6.4 1 1 1s1-.4 1-1c0-1.9-1.3-3.4-3-3.9v-2.6c0-.6-.4-1-1-1s-1 .4-1 1v2.6c-1.7.4-3 2-3 3.9 0 2.2 1.8 4 4 4 1.1 0 2 .9 2 2s-.9 2-2 2z"></path><path d="M-77.5 271c7.4 0 13.4-6 13.4-13.4s-6-13.4-13.4-13.4-13.4 6-13.4 13.4 6 13.4 13.4 13.4zm0-24.8c6.3 0 11.4 5.1 11.4 11.4S-71.2 269-77.5 269s-11.4-5.1-11.4-11.4 5.1-11.4 11.4-11.4z"></path><path d="M-45.8 284.5-62 268.4c.1-.6.1-1.2.1-1.8-.2-1.8.4-3 1.9-4.2 1.5-1.1 2.4-2.9 2.4-4.8s-.9-3.6-2.4-4.8c-1.5-1.1-2.1-2.4-1.9-4.2.2-1.9-.4-3.7-1.7-5s-3.1-1.9-5-1.7c-1.8.2-3-.4-4.2-1.9-1.1-1.5-2.9-2.4-4.8-2.4s-3.6.9-4.8 2.4c-1.1 1.5-2.4 2.1-4.2 1.9-1.9-.2-3.7.4-5 1.7-1.3 1.3-1.9 3.1-1.7 5 .2 1.8-.4 3-1.9 4.2-1.5 1.1-2.4 2.9-2.4 4.8s.9 3.6 2.4 4.8c1.5 1.1 2.1 2.4 1.9 4.2-.1.6 0 1.2.1 1.8l-16.1 16.1c-.3.3-.4.7-.2 1.1.2.4.6.6 1 .6l10.7-.8-.8 10.7c0 .4.2.8.6 1 .1.1.3.1.4.1.3 0 .5-.1.7-.3l19.3-19.3 19.3 19.3c.2.2.4.3.7.3.1 0 .3 0 .4-.1.4-.2.6-.6.6-1l-.8-10.7 10.7.8c.4 0 .8-.2 1-.6s.2-.8-.1-1.1zm-48-23.7c-1-.8-1.6-1.9-1.6-3.2s.6-2.4 1.6-3.2c2.1-1.5 2.9-3.5 2.7-6-.1-1.3.3-2.5 1.1-3.4.9-.9 2.1-1.3 3.4-1.1 2.5.3 4.4-.6 6-2.7.8-1 1.9-1.6 3.2-1.6 1.2 0 2.4.6 3.2 1.6 1.5 2.1 3.5 2.9 6 2.7 1.3-.1 2.5.3 3.4 1.1.9.9 1.3 2.1 1.1 3.4-.3 2.5.6 4.4 2.7 6 1 .8 1.6 1.9 1.6 3.2s-.6 2.4-1.6 3.2c-2.1 1.5-2.9 3.5-2.7 6 .1 1.3-.3 2.5-1.1 3.4-.9.9-2.1 1.3-3.4 1.1-2.5-.3-4.4.6-6 2.7-.8 1-1.9 1.6-3.2 1.6-1.2 0-2.4-.6-3.2-1.6-1.4-1.8-3-2.7-5.1-2.7h-.8c-1.3.1-2.5-.3-3.4-1.1-.9-.9-1.3-2.1-1.1-3.4.1-2.5-.7-4.4-2.8-6zm-2.1 22.8c-.2-.2-.5-.3-.8-.3l-9.2.7 13.6-13.6c.2.4.5.8.9 1.1 1.3 1.3 3.1 1.9 5 1.7 1.8-.2 3 .4 4.2 1.9.6.9 1.5 1.5 2.4 1.9l-16.5 16.5.7-9.2c0-.2-.1-.5-.3-.7zm37.6-.3c-.3 0-.6.1-.8.3s-.3.5-.3.8l.7 9.2-16.5-16.5c.9-.4 1.8-1 2.4-1.9 1.1-1.5 2.4-2.1 4.2-1.9 1.9.2 3.7-.4 5-1.7.3-.3.6-.7.9-1.1l13.6 13.6-9.2-.8z"></path><circle cx="37.5" cy="257.2" r="9.6" fill="#a6d856"></circle><path fill="#93b744" d="M37.5 247.6c-.6 0-1.1.1-1.6.1 4.5.8 8 4.7 8 9.5s-3.5 8.7-8 9.5c.5.1 1.1.1 1.6.1 5.3 0 9.6-4.3 9.6-9.6s-4.3-9.6-9.6-9.6z"></path><path fill="#fca13d" d="M21.8 287.4h15.3l-6.5-8.9H13l-6.5 8.9zM37.9 278.5h15.3l-6.5-8.8H29.1l-6.5 8.8zM53.2 287.4h15.3l-6.5-8.9H44.4l-6.5 8.9z"></path><path fill="#ea8c2f" d="M62 278.5h-5l6.5 8.9h5zM30.6 278.5h-5l6.5 8.9h5zM46.7 269.7h-5l6.5 8.8h5z"></path><path d="M37.5 267.9c5.9 0 10.6-4.8 10.6-10.6s-4.8-10.6-10.6-10.6-10.6 4.8-10.6 10.6 4.7 10.6 10.6 10.6zm0-19.3c4.8 0 8.6 3.9 8.6 8.6s-3.9 8.6-8.6 8.6-8.6-3.9-8.6-8.6 3.8-8.6 8.6-8.6z"></path><path d="M37.5 260.4c-.6 0-1.1-.5-1.1-1.1 0-.6-.4-1-1-1s-1 .4-1 1c0 1.3.9 2.5 2.1 2.9v1.6c0 .6.4 1 1 1s1-.4 1-1v-1.6c1.2-.4 2.1-1.5 2.1-2.9 0-1.7-1.4-3.1-3.1-3.1-.6 0-1.1-.5-1.1-1.1 0-.6.5-1.1 1.1-1.1s1.1.5 1.1 1.1c0 .6.4 1 1 1s1-.4 1-1c0-1.3-.9-2.5-2.1-2.9v-1.5c0-.6-.4-1-1-1s-1 .4-1 1v1.5c-1.2.4-2.1 1.5-2.1 2.9 0 1.7 1.4 3.1 3.1 3.1.6 0 1.1.5 1.1 1.1s-.5 1.1-1.1 1.1zm31.8 26.4-6.5-8.8c-.2-.3-.5-.4-.8-.4h-8.3l-6.2-8.4c-.2-.3-.5-.4-.8-.4H29.1c-.3 0-.6.2-.8.4l-6.2 8.4H13c-.3 0-.6.2-.8.4l-6.5 8.8c-.2.3-.3.7-.1 1 .2.3.5.5.9.5h30.6c.1 0 .3 0 .4-.1.1.1.3.1.4.1h30.6c.4 0 .7-.2.9-.5.2-.3.1-.7-.1-1zm-39.7-16.1h16.7l5 6.8H24.6l5-6.8zm7.9 15.5-4.9-6.7h9.8l-4.9 6.7zm-29 .2 5-6.8h16.7l5 6.8H8.5zm31.4 0 5-6.8h16.7l5 6.8H39.9z"></path><path fill="#2fb9ea" d="M130.6 267.5h43.8v5.2h-43.8zM130.6 236.5h43.8v5.2h-43.8z"></path><path fill="#19a0bf" d="M169.3 236.5h5.2v5.2h-5.2zM169.3 267.4h5.2v5.2h-5.2z"></path><path d="M136.5 267.5v-22.8h32v22.8"></path><path d="M144 250.2h17v3.2h-17z"></path><path fill="#2fb9ea" d="M171.5 241.7v25.8h-38v-25.8"></path><path fill="#f73152" d="M136.5 267.5v-22.8h32v22.8M136.5 298.5v-22.8h32v22.8"></path><path fill="#f73152" d="M136.5 298.5v-22.8h32v22.8"></path><path fill="#bcbec0" d="M144 250.2h17v3.2h-17z"></path><path fill="#2fb9ea" d="M171.5 272.7v25.8h-38v-25.8"></path><path fill="#f73152" d="M136.5 298.5v-22.8h32v22.8"></path><path fill="#d30b49" d="M163.5 275.7h5v22.8h-5zM163.5 244.7h5v22.8h-5z"></path><path fill="#bcbec0" d="M144 281.2h17v3.2h-17z"></path><path d="M174.4 242.7c.6 0 1-.4 1-1v-5.2c0-.6-.4-1-1-1h-43.8c-.6 0-1 .4-1 1v5.2c0 .6.4 1 1 1h1.9v23.8h-1.9c-.6 0-1 .4-1 1v5.2c0 .6.4 1 1 1h1.9v24.8c0 .6.4 1 1 1h38c.6 0 1-.4 1-1v-24.8h1.9c.6 0 1-.4 1-1v-5.2c0-.6-.4-1-1-1h-1.9v-23.8h1.9zm-42.8-5.2h41.8v3.2h-41.8v-3.2zm35.9 29h-30v-20.8h30v20.8zm0 31h-30v-20.8h30v20.8zm3 0h-1v-21.8c0-.6-.4-1-1-1h-32c-.6 0-1 .4-1 1v21.8h-1v-23.8h36v23.8zm2.9-25.8h-41.8v-3.2h41.8v3.2zm-2.9-5.2h-1v-21.8c0-.6-.4-1-1-1h-32c-.6 0-1 .4-1 1v21.8h-1v-23.8h36v23.8z"></path><path d="M144 254.4h17c.6 0 1-.4 1-1v-3.2c0-.6-.4-1-1-1h-17c-.6 0-1 .4-1 1v3.2c0 .6.4 1 1 1zm1-3.2h15v1.2h-15v-1.2zm-1 34.2h17c.6 0 1-.4 1-1v-3.2c0-.6-.4-1-1-1h-17c-.6 0-1 .4-1 1v3.2c0 .5.4 1 1 1zm1-3.2h15v1.2h-15v-1.2z"></path><path fill="#f73152" d="M36.5 137.8c-1.3 0-2.3-1-2.3-2.3V129c0-1.3 1-2.3 2.3-2.3 1.3 0 2.3 1 2.3 2.3v6.5c0 1.2-1 2.3-2.3 2.3zm7.2 0c-1.3 0-2.3-1-2.3-2.3V129c0-1.3 1-2.3 2.3-2.3 1.3 0 2.3 1 2.3 2.3v6.5c0 1.2-1 2.3-2.3 2.3zm-14.4 0c-1.3 0-2.3-1-2.3-2.3V129c0-1.3 1-2.3 2.3-2.3 1.3 0 2.3 1 2.3 2.3v6.5c-.1 1.2-1.1 2.3-2.3 2.3zm0 17.3c-1.3 0-2.3-1-2.3-2.3v-6.5c0-1.3 1-2.3 2.3-2.3 1.3 0 2.3 1 2.3 2.3v6.5c-.1 1.3-1.1 2.3-2.3 2.3zm9.2 17.4c1.3 0 2.3-1 2.3-2.3v-6.5c0-1.3-1-2.3-2.3-2.3-1.3 0-2.3 1-2.3 2.3v6.5c0 1.3 1.1 2.3 2.3 2.3zm7.3 0c1.3 0 2.3-1 2.3-2.3v-6.5c0-1.3-1-2.3-2.3-2.3-1.3 0-2.3 1-2.3 2.3v6.5c0 1.3 1 2.3 2.3 2.3zm-26.1-43.6c0-1.3 1-2.3 2.3-2.3 1.3 0 2.3 1 2.3 2.3v6.5c0 1.3-1 2.3-2.3 2.3-1.3 0-2.3-1-2.3-2.3v-6.5zm2.3 26.2c-1.3 0-2.3-1-2.3-2.3v-6.5c0-1.3 1-2.3 2.3-2.3 1.3 0 2.3 1 2.3 2.3v6.5c0 1.3-1 2.3-2.3 2.3zm31 17.4c1.3 0 2.3-1 2.3-2.3v-6.5c0-1.3-1-2.3-2.3-2.3-1.3 0-2.3 1-2.3 2.3v6.5c0 1.3 1 2.3 2.3 2.3z"></path><path fill="#d30b49" d="M53 161.4c-.4 0-.7.1-1 .2.8.4 1.3 1.1 1.3 2v6.5c0 .9-.5 1.7-1.3 2 .3.2.7.2 1 .2 1.3 0 2.3-1 2.3-2.3v-6.5c0-1.1-1-2.1-2.3-2.1zm-7.2 0c-.4 0-.7.1-1 .2.8.4 1.3 1.1 1.3 2v6.5c0 .9-.5 1.7-1.3 2 .3.2.7.2 1 .2 1.3 0 2.3-1 2.3-2.3v-6.5c0-1.1-1.1-2.1-2.3-2.1zm-7.3 0c-.4 0-.7.1-1 .2.8.4 1.3 1.1 1.3 2v6.5c0 .9-.5 1.7-1.3 2 .3.2.7.2 1 .2 1.3 0 2.3-1 2.3-2.3v-6.5c0-1.1-1-2.1-2.3-2.1zM29.3 144c-.4 0-.7.1-1 .2.8.4 1.3 1.1 1.3 2v6.5c0 .9-.5 1.7-1.3 2 .3.2.7.2 1 .2 1.3 0 2.3-1 2.3-2.3v-6.5c-.1-1.1-1.1-2.1-2.3-2.1zm-7.3 0c-.4 0-.7.1-1 .2.8.4 1.3 1.1 1.3 2v6.5c0 .9-.5 1.7-1.3 2 .3.2.7.2 1 .2 1.3 0 2.3-1 2.3-2.3v-6.5c0-1.1-1-2.1-2.3-2.1zm0-17.4c-.4 0-.7.1-1 .2.8.4 1.3 1.1 1.3 2v6.5c0 .9-.5 1.7-1.3 2 .3.2.7.2 1 .2 1.3 0 2.3-1 2.3-2.3v-6.5c0-1-1-2.1-2.3-2.1zm7.3 0c-.4 0-.7.1-1 .2.8.4 1.3 1.1 1.3 2v6.5c0 .9-.5 1.7-1.3 2 .3.2.7.2 1 .2 1.3 0 2.3-1 2.3-2.3v-6.5c-.1-1-1.1-2.1-2.3-2.1zm7.2 0c-.4 0-.7.1-1 .2.8.4 1.3 1.1 1.3 2v6.5c0 .9-.5 1.7-1.3 2 .3.2.7.2 1 .2 1.3 0 2.3-1 2.3-2.3v-6.5c0-1-1-2.1-2.3-2.1zm7.2 0c-.4 0-.7.1-1 .2.8.4 1.3 1.1 1.3 2v6.5c0 .9-.5 1.7-1.3 2 .3.2.7.2 1 .2 1.3 0 2.3-1 2.3-2.3v-6.5c0-1-1-2.1-2.3-2.1z"></path><path fill="#2fb9ea" d="M11.1 176.9v-53.4c0-1.1.9-2 2-2s2 .9 2 2v53.4m44.9 0v-53.4c0-1.1.9-2 2-2s2 .9 2 2v53.4M6.5 176.9h62v6.6h-62z"></path><path fill="#19a0bf" d="M62.5 176.9h6v6.6h-6z"></path><path fill="#a6d856" d="M60 130.6H46v3.2h14M19.7 130.6H15v3.2h4.7M27 130.6h-2.7v3.2H27M34.2 130.6h-2.7v3.2h2.7M41.4 130.6h-2.6v3.2h2.6M15 151.2h4.7v-3.3H15M27 147.9h-2.7v3.3H27M60 147.9H31.5v3.3H60M60 168.6h-4.7v-3.3H60M50.7 165.3h-2.6v3.3h2.6M40.8 165.3h2.7v3.3h-2.7M15 165.3h21.2v3.3H15"></path><path d="M68.5 175.9H65v-52.4c0-1.6-1.3-3-3-3s-3 1.3-3 3v6.1H47v-.6c0-1.8-1.5-3.3-3.3-3.3s-3.3 1.5-3.3 3.3v.6h-.6v-.6c0-1.8-1.5-3.3-3.3-3.3s-3.3 1.5-3.3 3.3v.6h-.7v-.6c0-1.8-1.5-3.3-3.3-3.3s-3.3 1.5-3.3 3.3v.6h-.7v-.6c0-1.8-1.5-3.3-3.3-3.3s-3.3 1.5-3.3 3.3v.6H16v-6.1c0-1.6-1.3-3-3-3s-3 1.3-3 3v52.4H6.5c-.6 0-1 .4-1 1v6.6c0 .6.4 1 1 1h62c.6 0 1-.4 1-1v-6.6c0-.6-.5-1-1-1zM61 123.5c0-.5.4-1 1-1s1 .4 1 1v52.4h-2v-52.4zm-45 52.4v-6.3h19.3v.6c0 1.8 1.5 3.3 3.3 3.3s3.3-1.5 3.3-3.3v-.6h.7v.6c0 1.8 1.5 3.3 3.3 3.3s3.3-1.5 3.3-3.3v-.6h.6v.6c0 1.8 1.5 3.3 3.3 3.3s3.3-1.5 3.3-3.3v-.6H59v6.3H16zm6-37.1c1.8 0 3.3-1.5 3.3-3.3v-.6h.7v.6c0 1.8 1.5 3.3 3.3 3.3s3.3-1.5 3.3-3.3v-.6h.7v.6c0 1.8 1.5 3.3 3.3 3.3s3.3-1.5 3.3-3.3v-.6h.6v.6c0 1.8 1.5 3.3 3.3 3.3s3.3-1.5 3.3-3.3v-.6h12V147H32.5v-.6c0-1.8-1.5-3.3-3.3-3.3s-3.3 1.5-3.3 3.3v.6h-.7v-.6c0-1.8-1.5-3.3-3.3-3.3s-3.3 1.5-3.3 3.3v.6H16v-12.1h2.7v.6c0 1.8 1.5 3.3 3.3 3.3zm17.8 31.4c0 .7-.6 1.3-1.3 1.3s-1.3-.6-1.3-1.3v-6.5c0-.7.6-1.3 1.3-1.3s1.3.6 1.3 1.3v6.5zm2-3.9h.7v1.3h-.7v-1.3zm2.7 2.3v-4.9c0-.7.6-1.3 1.3-1.3s1.3.6 1.3 1.3v6.5c0 .7-.6 1.3-1.3 1.3s-1.3-.6-1.3-1.3v-1.6zm4.6-2.3h.6v1.3h-.6v-1.3zm2.6-2.6c0-.7.6-1.3 1.3-1.3s1.3.6 1.3 1.3v6.5c0 .7-.6 1.3-1.3 1.3s-1.3-.6-1.3-1.3v-6.5zm1.3-3.3c-1.8 0-3.3 1.5-3.3 3.3v.6h-.6v-.6c0-1.8-1.5-3.3-3.3-3.3s-3.3 1.5-3.3 3.3v.6h-.7v-.6c0-1.8-1.5-3.3-3.3-3.3s-3.3 1.5-3.3 3.3v.6H16v-12.1h2.7v.6c0 1.8 1.5 3.3 3.3 3.3s3.3-1.5 3.3-3.3v-.6h.7v.6c0 1.8 1.5 3.3 3.3 3.3s3.3-1.5 3.3-3.3v-.6H59v12.1h-2.7v-.6c0-1.9-1.5-3.3-3.3-3.3zm6-10.2H32.5v-1.3H59v1.3zm-28.5-2.3v4.9c0 .7-.6 1.3-1.3 1.3s-1.3-.6-1.3-1.3v-6.5c0-.7.6-1.3 1.3-1.3s1.3.6 1.3 1.3v1.6zm-4.5 2.3h-.7v-1.3h.7v1.3zm-2.7-2.3v4.9c0 .7-.6 1.3-1.3 1.3s-1.3-.6-1.3-1.3v-6.5c0-.7.6-1.3 1.3-1.3s1.3.6 1.3 1.3v1.6zm-4.6 2.3H16v-1.3h2.7v1.3zM16 166.3h19.3v1.3H16v-1.3zm40.3 0H59v1.3h-2.7v-1.3zm2.7-34.7v1.3H47v-1.3h12zm-16.6-2.7c0-.7.6-1.3 1.3-1.3s1.3.6 1.3 1.3v6.5c0 .7-.6 1.3-1.3 1.3s-1.3-.6-1.3-1.3v-6.5zm-2 2.7v1.3h-.6v-1.3h.6zm-5.2-2.7c0-.7.6-1.3 1.3-1.3s1.3.6 1.3 1.3v6.5c0 .7-.6 1.3-1.3 1.3s-1.3-.6-1.3-1.3v-6.5zm-2 2.7v1.3h-.7v-1.3h.7zm-5.2-2.7c0-.7.6-1.3 1.3-1.3s1.3.6 1.3 1.3v6.5c0 .7-.6 1.3-1.3 1.3s-1.3-.6-1.3-1.3v-6.5zm-2 2.7v1.3h-.7v-1.3h.7zm-5.3-2.7c0-.7.6-1.3 1.3-1.3s1.3.6 1.3 1.3v6.5c0 .7-.6 1.3-1.3 1.3s-1.3-.6-1.3-1.3v-6.5zm-2 2.7v1.3H16v-1.3h2.7zm-6.6-8.1c0-.5.4-1 1-1s1 .4 1 1v52.4h-1.9v-52.4zm55.4 59h-60v-4.6h60v4.6z"></path><path fill="#a6d856" d="M-411-52.7h5.4v5h-5.4z"></path><path fill="#d30b49" d="M-411-60h5.4v5h-5.4z"></path><path fill="#93b744" d="M-411-67.3h5.4v5h-5.4z"></path><path fill="#19a0bf" d="M-411-74.6h5.4v5h-5.4z"></path><path fill="#bcbec0" d="M-411-45.7h5.4v5h-5.4z"></path><path fill="#f73152" d="M-411-37.5h5.4v5h-5.4z"></path><path fill="#2fb9ea" d="M-411-29.3h5.4v5h-5.4z"></path><path d="m69.2-200.9-23.4-23.4c-.4-.4-1-.4-1.4 0L5.8-185.6c-.2.2-.3.4-.3.7s.1.5.3.7l23.4 23.4c.2.2.5.3.7.3s.5-.1.7-.3l38.6-38.6c.2-.2.3-.4.3-.7s-.1-.6-.3-.8zm-39.3 38-22-22 37.2-37.2L67-200.2l-37.1 37.3z"></path><path d="M42.7-216.1c-.4-.4-1-.4-1.4 0L14-188.7c-.4.4-.4 1 0 1.4 1.3 1.3 1.3 3.5 0 4.9-.2.2-.3.4-.3.7s.1.5.3.7l12 12.1c.2.2.4.3.7.3s.5-.1.7-.3c1.3-1.3 3.5-1.3 4.9 0 .4.4 1 .4 1.4 0L61-196.3c.4-.4.4-1 0-1.4-1.3-1.3-1.3-3.5 0-4.9.2-.2.3-.4.3-.7 0-.3-.1-.5-.3-.7l-12-12.1c-.4-.4-1-.4-1.4 0-1.4 1.4-3.5 1.4-4.9 0zm5.5 2.1L59-203.2c-.6.9-1 2-1 3.1s.3 2.2 1 3.1l-26.1 26c-1.9-1.3-4.3-1.3-6.2 0l-5.4-5.4-5.4-5.4c1.3-1.9 1.3-4.3 0-6.2l26.2-26c1.8 1.2 4.3 1.2 6.1 0z"></path><path d="m39.8-191.6-.9-.9 2.2-2.2c.4-.4.4-1 0-1.4-.4-.4-1-.4-1.4 0l-2.2 2.2-.8-.8v-7.6c0-.6-.4-1-1-1s-1 .4-1 1v7h-7c-.6 0-1 .4-1 1s.4 1 1 1h7.6l.8.8-2.2 2.2c-.4.4-.4 1 0 1.4.2.2.5.3.7.3s.5-.1.7-.3l2.2-2.2.9.9-2.2 2.2c-.4.4-.4 1 0 1.4.2.2.5.3.7.3s.5-.1.7-.3l2.2-2.2 2.8 2.8c.2.2.5.3.7.3s.5-.1.7-.3c.4-.4.4-1 0-1.4l-2.8-2.8 2.2-2.2c.4-.4.4-1 0-1.4s-1-.4-1.4 0l-2.2 2.2z"></path><path fill="#a6d856" d="m121.533-184.862 38.678-38.68 23.335 23.335-38.678 38.68z"></path><path fill="#93b744" d="m160.2-223.5-2.3 2.3 21.1 21.1-36.3 36.4 2.2 2.2 38.6-38.7z"></path><path fill="#2fb9ea" d="m135.7-175.7-6-6c1.7-1.7 1.7-4.6 0-6.3l13.7-13.7 13.7-13.7c1.7 1.7 4.6 1.7 6.3 0l6 6 6 6c-1.7 1.7-1.7 4.6 0 6.3l-13.7 13.7-13.7 13.7c-1.7-1.7-4.6-1.7-6.3 0l-6-6z"></path><path fill="#19a0bf" d="m175.4-203.3-6-6-6-6c-.7.7-1.6 1.1-2.5 1.2l4.8 4.8 6 6c-1.7 1.7-1.7 4.6 0 6.3L158-183.3l-12.4 12.4c.9.1 1.8.5 2.5 1.2l13.7-13.7 13.7-13.7c-1.9-1.6-1.9-4.5-.1-6.2z"></path><path d="M152.5-181.4c-2.8 0-5.7-1.1-7.8-3.2-2.1-2.1-3.2-4.9-3.2-7.8s1.2-5.7 3.2-7.8c4.3-4.3 11.4-4.3 15.7 0 4.3 4.3 4.3 11.3 0 15.7-2.2 2-5.1 3.1-7.9 3.1zm0-20.2c-2.3 0-4.7.9-6.4 2.7-3.5 3.5-3.5 9.3 0 12.8s9.3 3.5 12.8 0 3.5-9.3 0-12.8c-1.7-1.8-4.1-2.7-6.4-2.7z"></path><circle cx="152.5" cy="-192.5" r="10.1" fill="#a6d856"></circle><path fill="#93b744" d="M159.6-199.6c-3.1-3.1-7.8-3.8-11.6-1.9 3.2-.6 6.6.3 9 2.8 3.9 3.9 3.9 10.3 0 14.3-.8.8-1.7 1.4-2.7 1.9 1.9-.4 3.8-1.3 5.2-2.8 4.1-4 4.1-10.4.1-14.3z"></path><path d="M144.7-200.3c-2.1 2.1-3.2 4.9-3.2 7.8s1.2 5.7 3.2 7.8c2.2 2.2 5 3.2 7.8 3.2s5.7-1.1 7.8-3.2c4.3-4.3 4.3-11.3 0-15.7-4.3-4.3-11.3-4.3-15.6.1zm14.2 14.2c-3.5 3.5-9.3 3.5-12.8 0s-3.5-9.3 0-12.8c1.8-1.8 4.1-2.7 6.4-2.7 2.3 0 4.6.9 6.4 2.7 3.6 3.5 3.6 9.3 0 12.8z"></path><path d="m149.5-196.9-1.2-1.2c-.4-.4-1-.4-1.4 0s-.4 1 0 1.4l1.2 1.2c-.6 1.2-.4 2.7.6 3.6 1.2 1.2 3.2 1.2 4.5 0 .5-.5 1.2-.5 1.7 0s.5 1.2 0 1.7-1.2.5-1.7 0c-.4-.4-1-.4-1.4 0s-.4 1 0 1.4c.6.6 1.4.9 2.2.9.5 0 1-.1 1.4-.3l1.2 1.2c.2.2.5.3.7.3s.5-.1.7-.3c.4-.4.4-1 0-1.4l-1.2-1.2c.6-1.2.4-2.7-.6-3.6-1.2-1.2-3.2-1.2-4.5 0-.5.5-1.2.5-1.7 0s-.5-1.2 0-1.7 1.2-.5 1.7 0c.4.4 1 .4 1.4 0s.4-1 0-1.4c-.9-1-2.4-1.2-3.6-.6z"></path><path d="m184.2-200.9-23.3-23.4c-.4-.4-1-.4-1.4 0l-38.7 38.6c-.2.2-.3.4-.3.7s.1.5.3.7l23.4 23.4c.2.2.5.3.7.3s.5-.1.7-.3l38.6-38.6c.4-.3.4-1 0-1.4zm-39.3 38L123-184.8l37.2-37.2 21.9 21.9-37.2 37.2z"></path><path d="M157.7-216.1c-.4-.4-1-.4-1.4 0l-27.4 27.4c-.4.4-.4 1 0 1.4.7.7 1 1.5 1 2.4 0 .9-.4 1.8-1 2.4-.2.2-.3.4-.3.7s.1.5.3.7l6 6 6 6c.2.2.4.3.7.3.3 0 .5-.1.7-.3 1.3-1.3 3.6-1.3 4.9 0 .4.4 1 .4 1.4 0l27.3-27.4c.4-.4.4-1 0-1.4-1.3-1.3-1.3-3.5 0-4.9.2-.2.3-.4.3-.7 0-.3-.1-.5-.3-.7L164-216.1c-.2-.2-.4-.3-.7-.3s-.5.1-.7.3c-1.4 1.4-3.5 1.4-4.9 0zm5.5 2.1 10.8 10.8c-.6.9-1 2-1 3.1s.3 2.2 1 3.1l-26.1 26c-1.8-1.2-4.4-1.2-6.2 0l-5.4-5.4-5.4-5.4c.6-.9 1-2 1-3.1s-.3-2.2-1-3.1l26.1-26.1c1.9 1.4 4.4 1.4 6.2.1zM-50.1-107.5h-54.8c-2.5 0-4.6 2.1-4.6 4.6v45.8c0 2.5 2.1 4.6 4.6 4.6h.3v4.2c0 .6.4 1 1 1h16.2c.6 0 1-.4 1-1v-4.2h17.8v4.2c0 .6.4 1 1 1h16.2c.6 0 1-.4 1-1v-4.2h.3c2.5 0 4.6-2.1 4.6-4.6V-103c0-2.5-2.1-4.5-4.6-4.5zm-38.3 58h-14.2v-3.2h14.2v3.2zm36 0h-14.2v-3.2h14.2v3.2zm4.9-7.7c0 1.4-1.2 2.6-2.6 2.6h-54.8c-1.4 0-2.6-1.2-2.6-2.6V-103c0-1.4 1.2-2.6 2.6-2.6h54.8c1.4 0 2.6 1.2 2.6 2.6v45.8z"></path><path d="M-52.5-101.5h-46.9c-.6 0-1 .4-1 1v2.8h-1.4c-.6 0-1 .4-1 1v11.4c0 .6.4 1 1 1h1.4v8.6h-1.4c-.6 0-1 .4-1 1v11.4c0 .6.4 1 1 1h1.4v2.8c0 .6.4 1 1 1h46.9c.6 0 1-.4 1-1v-40.9c0-.7-.5-1.1-1-1.1zm-48.4 5.7h2.8v9.4h-2.9v-9.4zm0 31.4v-9.4h2.9v9.4h-2.9zm47.4 3.8h-44.9v-1.8h1.4c.6 0 1-.4 1-1v-11.4c0-.6-.4-1-1-1h-1.4v-8.6h1.4c.6 0 1-.4 1-1v-11.4c0-.6-.4-1-1-1h-1.4v-1.8h44.9v39z"></path><path d="M-76-63.4c9.5 0 17.2-7.7 17.2-17.2S-66.5-97.8-76-97.8s-17.2 7.7-17.2 17.2 7.8 17.2 17.2 17.2zm0-32.4c8.4 0 15.2 6.8 15.2 15.2 0 8.4-6.8 15.2-15.2 15.2-8.4 0-15.2-6.8-15.2-15.2.1-8.4 6.9-15.2 15.2-15.2z"></path><path d="m-85.2-75.7-.4.4c-1.2 1.2-1.2 3.1 0 4.3.6.6 1.4.9 2.2.9s1.6-.3 2.2-.9l.4-.4c1.5.8 3.2 1.3 4.9 1.3 1.7 0 3.4-.4 4.9-1.3l.4.4c.6.6 1.4.9 2.2.9.8 0 1.6-.3 2.2-.9 1.2-1.2 1.2-3.1 0-4.3l-.4-.4c.8-1.5 1.3-3.2 1.3-4.9 0-1.7-.4-3.4-1.3-4.9l.4-.4c1.2-1.2 1.2-3.1 0-4.3-1.2-1.2-3.1-1.2-4.3 0l-.4.4c-3-1.6-6.8-1.6-9.8 0l-.4-.4c-1.2-1.2-3.1-1.2-4.3 0-1.2 1.2-1.2 3.1 0 4.3l.4.4c-.8 1.5-1.3 3.2-1.3 4.9-.2 1.7.3 3.4 1.1 4.9zm2.5 3.3c-.4.4-1.1.4-1.5 0-.4-.4-.4-1.1 0-1.5l3.9-3.9c.4.6.9 1.1 1.5 1.5l-3.9 3.9zm3.6-8.2c0-1.7 1.4-3.2 3.2-3.2s3.2 1.4 3.2 3.2-1.4 3.2-3.2 3.2-3.2-1.5-3.2-3.2zm-.3 7.8 2.7-2.7c.2 0 .5.1.7.1.3 0 .5 0 .7-.1l2.7 2.7c-2.1.9-4.6.9-6.8 0zm11.6.4c-.4.4-1.1.4-1.5 0l-3.9-3.9c.6-.4 1.1-.9 1.5-1.5l3.9 3.9c.4.4.4 1.1 0 1.5zm-.4-4.8-2.7-2.7c0-.2.1-.5.1-.7s0-.5-.1-.7l2.7-2.7c.5 1.1.7 2.2.7 3.4 0 1.2-.2 2.4-.7 3.4zm-1.1-11.6c.4-.4 1.1-.4 1.5 0 .4.4.4 1.1 0 1.5l-3.9 3.9c-.4-.6-.9-1.1-1.5-1.5l3.9-3.9zm-3.2.4-2.7 2.7c-.2 0-.5-.1-.7-.1-.3 0-.5 0-.7.1l-2.7-2.7c2.1-.9 4.6-.9 6.8 0zm-11.7-.4c.4-.4 1.1-.4 1.5 0l3.9 3.9c-.6.4-1.1.9-1.5 1.5l-3.9-3.9c-.4-.4-.4-1.1 0-1.5zm.4 4.8 2.7 2.7c0 .2-.1.5-.1.7s0 .5.1.7l-2.7 2.7c-.5-1.1-.7-2.2-.7-3.4 0-1.2.3-2.4.7-3.4z"></path><path fill="#2fb9ea" d="M-202.6 27.7v4c-6.8 3.6-11.4 10.8-11.4 19 0 7.4 3.7 13.9 9.4 17.7h24.3c5.7-3.9 9.4-10.4 9.4-17.7 0-8.2-4.6-15.4-11.5-19v-4"></path><path fill="#19a0bf" d="M-182.5 31.7v-4h-3.8V33c6.8 3.6 11.5 10.8 11.5 19 0 6.6-3 12.6-7.7 16.5h2.1c5.7-3.9 9.4-10.4 9.4-17.7 0-8.3-4.6-15.5-11.5-19.1z"></path><path fill="#a6d856" d="M-184 58.9c0 .9-3.8 1.7-8.5 1.7s-8.5-.8-8.5-1.7v-4.5c0 .9 3.8 1.7 8.5 1.7s8.5-.8 8.5-1.7v4.5z"></path><path fill="#a6d856" d="M-201 63.4c0 .9 3.8 1.7 8.5 1.7s8.5-.8 8.5-1.7v-4.5c0 .9-3.8 1.7-8.5 1.7s-8.5-.8-8.5-1.7v4.5zm0-13.6c0 .9 3.8 1.7 8.5 1.7s8.5-.8 8.5-1.7v4.5c0 .9-3.8 1.7-8.5 1.7s-8.5-.8-8.5-1.7v-4.5z"></path><path fill="#93b744" d="M-186.6 55.6v3.3c0 .9-3.1 1.6-7.2 1.7h1.3c4.7 0 8.5-.8 8.5-1.7v-4.5c0 .4-1 .8-2.6 1.2z"></path><path fill="#93b744" d="M-186.6 60.1v3.3c0 .9-3.1 1.6-7.2 1.7h1.3c4.7 0 8.5-.8 8.5-1.7v-4.5c0 .5-1 .9-2.6 1.2z"></path><path fill="#a6d856" d="M-195.5 20.8c-2.6-1.2-4.4-3.8-4.4-6.8 0-4.1 3.3-7.5 7.5-7.5s7.5 3.3 7.5 7.5c0 3-1.8 5.7-4.4 6.8"></path><path fill="#93b744" d="M-192.5 6.5c-.6 0-1.1.1-1.7.2 3.3.8 5.8 3.7 5.8 7.3 0 3-1.8 5.7-4.4 6.8h3.3c2.6-1.2 4.4-3.8 4.4-6.8.1-4.1-3.3-7.5-7.4-7.5z"></path><circle cx="-192.5" cy="40.9" r="8" fill="#a6d856"></circle><path fill="#93b744" d="M-192.5 33c-.6 0-1.1.1-1.7.2 3.6.8 6.3 4 6.3 7.8s-2.7 7-6.3 7.8c.5.1 1.1.2 1.7.2 4.4 0 8-3.6 8-8s-3.6-8-8-8z"></path><path fill="#f73152" d="M-205.7 20.8h26.5v6.9h-26.5z"></path><path fill="#d30b49" d="M-182.6 20.8h3.3v6.9h-3.3z"></path><path fill="#93b744" d="M-186.6 51v3.3c0 .9-3.1 1.6-7.2 1.7h1.3c4.7 0 8.5-.8 8.5-1.7v-4.5c0 .5-1 .9-2.6 1.2z"></path><path d="M-192.5 43.4c-.4 0-.7-.3-.7-.7 0-.6-.4-1-1-1s-1 .4-1 1c0 1.1.7 2.1 1.7 2.5v1.2c0 .6.4 1 1 1s1-.4 1-1v-1.2c1-.4 1.7-1.4 1.7-2.5 0-1.5-1.2-2.7-2.7-2.7-.4 0-.7-.3-.7-.7 0-.4.3-.7.7-.7.4 0 .7.3.7.7 0 .6.4 1 1 1s1-.4 1-1c0-1.1-.7-2.1-1.7-2.5v-1.1c0-.6-.4-1-1-1s-1 .4-1 1v1.1c-1 .4-1.7 1.4-1.7 2.5 0 1.5 1.2 2.7 2.7 2.7.4 0 .7.3.7.7 0 .3-.3.7-.7.7z"></path><path d="M-181.5 31.1v-2.4h2.2c.6 0 1-.4 1-1v-6.9c0-.6-.4-1-1-1h-7.1c1.5-1.5 2.3-3.6 2.3-5.8 0-4.7-3.8-8.5-8.5-8.5S-201 9.3-201 14c0 2.2.9 4.3 2.3 5.8h-7.1c-.6 0-1 .4-1 1v6.9c0 .6.4 1 1 1h2.2v2.4c-7.1 4-11.4 11.5-11.4 19.6 0 7.4 3.7 14.4 9.8 18.6.2.1.4.2.6.2h24.3c.2 0 .4-.1.6-.2 6.1-4.2 9.8-11.1 9.8-18.6-.1-8.1-4.5-15.6-11.6-19.6zM-199 14c0-3.6 2.9-6.5 6.5-6.5s6.5 2.9 6.5 6.5c0 2.5-1.4 4.8-3.7 5.8h-2.2c.2-.2.4-.5.4-.8v-1c.9-.4 1.6-1.3 1.6-2.4 0-1-.5-1.8-1.3-2.3.1 0 .2.1.3.1.6 0 1-.4 1-1 0-1.1-.7-2-1.6-2.4V9c0-.6-.4-1-1-1s-1 .4-1 1v1c-.9.4-1.6 1.3-1.6 2.4 0 1 .5 1.8 1.3 2.3-.1 0-.2-.1-.3-.1-.6 0-1 .4-1 1 0 1.1.7 2 1.6 2.4v1c0 .3.2.6.4.8h-2.2c-2.2-1.1-3.7-3.3-3.7-5.8zm6.5-1c-.3 0-.6-.3-.6-.6s.3-.6.6-.6.6.3.6.6.2.6.4.8c-.3-.2-.6-.2-1-.2zm0 2c.3 0 .6.3.6.6s-.3.6-.6.6-.6-.3-.6-.6-.2-.6-.4-.8c.3.1.6.2 1 .2zm-12.2 6.8h24.5v4.9h-24.5v-4.9zm24 45.7h-23.6c-5.4-3.8-8.7-10.1-8.7-16.7 0-7.6 4.2-14.6 10.9-18.1.3-.2.5-.5.5-.9v-3h18.1v3c0 .4.2.7.5.9 6.7 3.6 10.9 10.5 10.9 18.1.1 6.6-3.1 12.8-8.6 16.7z"></path><path d="M-186.4 47.5c1.8-1.6 2.9-4 2.9-6.6 0-5-4-9-9-9s-9 4-9 9c0 2.6 1.1 5 2.9 6.6-3.4.7-3.5 1.8-3.5 2.2v13.6c0 2.5 6.7 2.7 9.5 2.7s9.5-.3 9.5-2.7V49.8c.1-.5.1-1.6-3.3-2.3zm-13.1-6.6c0-3.8 3.1-7 7-7s7 3.1 7 7c0 3.8-3.1 7-7 7s-7-3.1-7-7zm3.5 8.3c1.1.5 2.2.7 3.5.7 1.2 0 2.4-.3 3.5-.7 1.6.1 2.7.4 3.3.6-1.2.3-3.5.7-6.8.7s-5.6-.4-6.8-.7c.7-.2 1.7-.4 3.3-.6zm11 11.5v2.4c-.7.4-3.3 1-7.5 1s-6.8-.6-7.5-1v-2.4c2.2.8 5.7.9 7.5.9s5.3-.1 7.5-.9zm0-2.1c-.7.4-3.3 1-7.5 1s-6.8-.6-7.5-1v-2.4c2.2.8 5.7.9 7.5.9s5.3-.1 7.5-.9v2.4zm0-5.7V54c-.7.4-3.2 1-7.5 1s-6.9-.6-7.5-1V51.6c2.2.8 5.7.9 7.5.9s5.3-.1 7.5-.9v1.3z"></path><path fill="#bcbec0" d="M-83.9 35.9c-5.9.5-10 1.7-10 3 0 1.8 7.3 3.3 16.4 3.3s16.4-1.5 16.4-3.3c0-1.4-4.1-2.5-10-3"></path><path fill="#a6d856" d="M-61.1 56.4v-8.8c0 1.8-7.3 3.3-16.4 3.3s-16.4-1.5-16.4-3.3v8.8c0 1.8 7.3 3.3 16.4 3.3s16.4-1.5 16.4-3.3z"></path><path fill="#a6d856" d="M-93.9 65.2c0 1.8 7.3 3.3 16.4 3.3s16.4-1.5 16.4-3.3v-8.8c0 1.8-7.3 3.3-16.4 3.3s-16.4-1.5-16.4-3.3v8.8zm16.4-23c-9.1 0-16.4-1.5-16.4-3.3v8.8c0 1.8 7.3 3.3 16.4 3.3s16.4-1.5 16.4-3.3v-8.8c0 1.8-7.3 3.3-16.4 3.3z"></path><path fill="#93b744" d="M-65 49.8v6.6c0 1.7-6.3 3.1-14.4 3.3h2c9.1 0 16.4-1.5 16.4-3.3v-8.8c-.1.9-1.6 1.6-4 2.2z"></path><path fill="#93b744" d="M-64.9 58.5v6.6c0 1.7-6.3 3.1-14.5 3.3h1.9c9.1 0 16.4-1.5 16.4-3.3v-8.8c0 .9-1.5 1.7-3.8 2.2zm-.5-17.4v6.5c0 1.7-6.2 3.1-14.2 3.3h2.2c9.1 0 16.4-1.5 16.4-3.3v-8.8c-.1 1-1.7 1.7-4.4 2.3z"></path><circle cx="-77.5" cy="21.9" r="15.4" fill="#a6d856"></circle><path fill="#93b744" d="M-77.5 6.5c-.7 0-1.4.1-2.2.2 7.5 1 13.2 7.4 13.2 15.2 0 7.8-5.7 14.1-13.2 15.2.7.1 1.4.2 2.2.2 8.5 0 15.4-6.9 15.4-15.4S-69 6.5-77.5 6.5z"></path><path d="M-76.5 32.3v-2.9c1.9-.5 3.3-2.1 3.3-4.2 0-2.4-1.9-4.3-4.3-4.3-1.3 0-2.3-1-2.3-2.3s1-2.3 2.3-2.3 2.3 1 2.3 2.3c0 .6.4 1 1 1s1-.4 1-1c0-2-1.4-3.7-3.3-4.2v-2.9c0-.6-.4-1-1-1s-1 .4-1 1v2.9c-1.9.5-3.3 2.1-3.3 4.2 0 2.4 1.9 4.3 4.3 4.3 1.3 0 2.3 1 2.3 2.3s-1 2.3-2.3 2.3-2.3-1-2.3-2.3c0-.6-.4-1-1-1s-1 .4-1 1c0 2 1.4 3.7 3.3 4.2v2.9c0 .6.4 1 1 1s1-.5 1-1z"></path><path d="M-68 35.2c4.2-3 6.9-7.8 6.9-13.3 0-9-7.3-16.4-16.4-16.4-9 0-16.4 7.3-16.4 16.4 0 5.5 2.7 10.3 6.9 13.3-5.2.7-7.9 2-7.9 3.7v26.3c0 4.2 15.6 4.3 17.4 4.3s17.4-.1 17.4-4.3V38.9c0-1.7-2.7-3-7.9-3.7zm5.9 5.9v6.4c-.6.9-6.2 2.4-15.4 2.4s-14.8-1.5-15.4-2.4v-6.4c4.3 2 14 2.1 15.4 2.1s11.1-.1 15.4-2.1zm-29.8-19.2c0-7.9 6.4-14.4 14.4-14.4 7.9 0 14.4 6.4 14.4 14.4s-6.4 14.4-14.4 14.4c-7.9 0-14.4-6.5-14.4-14.4zm7.9 15a15.802 15.802 0 0 0 13 0c5.6.5 8.2 1.5 8.8 2-.9.9-6.4 2.3-15.3 2.3s-14.4-1.4-15.3-2.3c.5-.5 3.1-1.5 8.8-2zm21.9 28.2c-.6.9-6.2 2.4-15.4 2.4s-14.8-1.5-15.4-2.4v-6.4c4.3 2 14 2.1 15.4 2.1s11.1-.1 15.4-2.1v6.4zm0-8.8c-.6.9-6.2 2.4-15.4 2.4s-14.8-1.5-15.4-2.4v-6.4c4.3 2 14 2.1 15.4 2.1s11.1-.1 15.4-2.1v6.4z"></path><path fill="#2fb9ea" d="M-328.5-188.5h7.8v19h-7.8z"></path><path fill="#15a7ce" d="M-323.9-188.5h3.2v19h-3.2z"></path><path fill="#2fb9ea" d="M-317.1-192.5h7.8v23h-7.8zM-305.7-196.5h7.8v27h-7.8z"></path><path fill="#15a7ce" d="M-300.6-196.5h2.7v27h-2.7z"></path><path fill="#2fb9ea" d="M-294.3-200.5h7.8v31h-7.8z"></path><path fill="#15a7ce" d="M-289.6-200.5h3.1v31h-3.1z"></path><path fill="#bcbec0" d="M-338.5-166.3h62v4.8h-62z"></path><path fill="#989da0" d="M-281.1-166.3h4.6v4.8h-4.6z"></path><circle cx="-307.5" cy="-215.4" r="8.1" fill="#a6d856"></circle><path fill="#93b744" d="M-307.5-223.5c-1.5 0-2.9.4-4.1 1.1.7-.2 1.4-.3 2.1-.3 4.5 0 8.1 3.6 8.1 8.1 0 3-1.6 5.6-4 7 3.5-.9 6-4.1 6-7.8 0-4.5-3.6-8.1-8.1-8.1z"></path><path fill="#15a7ce" d="M-309.4-192.5h-2.5v23h2.5v-23z"></path><path d="M-328.5-191.5h7.8c.6 0 1-.4 1-1v-3.6h10.4c.6 0 1-.4 1-1v-3.9h10.4c.6 0 1-.4 1-1v-3.4h10.4c.6 0 1-.4 1-1s-.4-1-1-1h-11.4c-.6 0-1 .4-1 1v3.4h-10.4c-.6 0-1 .4-1 1v3.9h-10.4c-.6 0-1 .4-1 1v3.6h-6.8c-.6 0-1 .4-1 1s.4 1 1 1zm21-21.4c-.4 0-.7-.3-.7-.7 0-.6-.4-1-1-1s-1 .4-1 1c0 1.2.7 2.1 1.7 2.5v1.2c0 .6.4 1 1 1s1-.4 1-1v-1.2c1-.4 1.7-1.4 1.7-2.5 0-1.5-1.2-2.7-2.7-2.7-.4 0-.7-.3-.7-.7 0-.4.3-.7.7-.7h.2c.4 0 .7.3.7.7 0 .6.4 1 1 1s1-.4 1-1c0-1.2-.7-2.1-1.7-2.5v-1.2c0-.6-.4-1-1-1s-1 .4-1 1v1.2c-1 .4-1.7 1.4-1.7 2.5 0 1.5 1.2 2.7 2.7 2.7.4 0 .7.3.7.7-.2.3-.5.7-.9.7zm-21 45h7.8c.6 0 1-.4 1-1v-19.6c0-.6-.4-1-1-1h-7.8c-.6 0-1 .4-1 1v19.6c0 .5.4 1 1 1zm1-19.6h5.8v17.6h-5.8v-17.6z"></path><path d="M-309.3-193.5h-7.8c-.6 0-1 .4-1 1v23c0 .6.4 1 1 1h7.8c.6 0 1-.4 1-1v-23c0-.6-.5-1-1-1zm-1 23h-5.8v-21h5.8v21zm12.4-27h-7.8c-.6 0-1 .4-1 1v27c0 .6.4 1 1 1h7.8c.6 0 1-.4 1-1v-27c0-.6-.5-1-1-1zm-1 27h-5.8v-25h5.8v25zm12.4-31h-7.8c-.6 0-1 .4-1 1v31c0 .6.4 1 1 1h7.8c.6 0 1-.4 1-1v-31c0-.6-.4-1-1-1zm-1 31h-5.8v-29h5.8v29zm11 3.2h-62c-.6 0-1 .4-1 1v4.8c0 .6.4 1 1 1h62c.6 0 1-.4 1-1v-4.8c0-.5-.4-1-1-1zm-1 4.8h-60v-2.8h60v2.8zm-30-43.8c5 0 9.1-4.1 9.1-9.1s-4.1-9.1-9.1-9.1-9.1 4.1-9.1 9.1 4.1 9.1 9.1 9.1zm0-16.2c3.9 0 7.1 3.2 7.1 7.1s-3.2 7.1-7.1 7.1-7.1-3.2-7.1-7.1 3.2-7.1 7.1-7.1z"></path><path fill="#2fb9ea" d="m-194.1-208-10.2-15.5h11.8v5.6l4.7-5.6h7.1l-10.2 15.5"></path><path fill="#2fb9ea" d="m-182.5-220.3 8.7-.9-8.7 13.2H-202l-8.7-13.2 8.7.9"></path><path fill="#15a7ce" d="m-177.5-220.8-8.6 12.8h3.3l8.7-13.2zM-202.2-220.3l-3.7-.4 8.4 12.7h3.7l-8.2-12.3zM-183.6-223.5l-9.6 15.5h2.3l10.2-15.5z"></path><path fill="#2fb9ea" d="M-180.1-203.7c6.3 4.1 10.5 11.2 10.5 19.3 0 12.7-10.3 22.9-22.9 22.9s-22.9-10.3-22.9-22.9c0-8.1 4.2-15.2 10.5-19.3"></path><path fill="#15a7ce" d="M-180.1-203.7h-4.1c6.3 4.1 10.5 11.2 10.5 19.3 0 12-9.2 21.8-20.9 22.8.7.1 1.4.1 2 .1 12.7 0 22.9-10.3 22.9-22.9.1-8.1-4.1-15.2-10.4-19.3z"></path><circle cx="-192.5" cy="-185.1" r="12.2" fill="#a6d856"></circle><path fill="#93b744" d="M-192.5-197.3c-1.1 0-2.1.2-3.1.4h.5c6.8 0 12.2 5.5 12.2 12.2 0 5.7-3.9 10.4-9.1 11.8 6.5-.3 11.7-5.6 11.7-12.2 0-6.8-5.4-12.2-12.2-12.2z"></path><path fill="#f73152" d="M-177.1-203.7h-30.8c-1.2 0-2.1-1-2.1-2.1 0-1.2 1-2.1 2.1-2.1h30.8c1.2 0 2.1 1 2.1 2.1.1 1.1-.9 2.1-2.1 2.1z"></path><path fill="#d30b49" d="M-177.1-208h-4.4c1.2 0 2.1 1 2.1 2.1 0 1.2-1 2.1-2.1 2.1h4.4c1.2 0 2.1-1 2.1-2.1.1-1.2-.9-2.1-2.1-2.1z"></path><path d="M-192.5-198.3c-7.3 0-13.2 5.9-13.2 13.2s5.9 13.2 13.2 13.2 13.2-5.9 13.2-13.2-5.9-13.2-13.2-13.2zm0 24.4c-6.2 0-11.2-5-11.2-11.2s5-11.2 11.2-11.2 11.2 5 11.2 11.2-5 11.2-11.2 11.2z"></path><path d="M-192.6-189.4h.2c.8.1 1.5.8 1.5 1.6 0 .6.4 1 1 1s1-.4 1-1c0-1.7-1.1-3-2.6-3.5v-2.1c0-.6-.4-1-1-1s-1 .4-1 1v2.1c-1.5.4-2.6 1.8-2.6 3.5 0 2 1.6 3.6 3.6 3.6.9 0 1.6.7 1.6 1.6 0 .9-.7 1.6-1.6 1.6s-1.6-.7-1.6-1.6c0-.6-.4-1-1-1s-1 .4-1 1c0 1.7 1.1 3 2.6 3.5v2.2c0 .6.4 1 1 1s1-.4 1-1v-2.2c1.5-.4 2.6-1.8 2.6-3.5 0-2-1.6-3.6-3.6-3.6-.9 0-1.6-.7-1.6-1.6 0-.8.6-1.5 1.5-1.6z"></path><path d="M-177.1-202.7c1.7 0 3.2-1.4 3.2-3.1s-1.4-3.1-3.1-3.1h-3.8l7.7-11.6c.2-.3.2-.7 0-1.1-.2-.3-.6-.5-1-.5l-6.6.6.9-1.4c.2-.3.2-.7 0-1-.2-.3-.5-.5-.9-.5h-7.1c-.3 0-.6.1-.8.4l-3 3.5v-2.9c0-.6-.4-1-1-1h-11.8c-.4 0-.7.2-.9.5-.2.3-.2.7 0 1l.9 1.4-6.6-.6c-.4 0-.8.2-1 .5-.2.3-.2.7 0 1.1l7.7 11.6h-3.8c-1.7 0-3.1 1.4-3.1 3.1s1.4 3.1 3.1 3.1c-5.4 4.5-8.5 11.2-8.5 18.3 0 13.2 10.7 23.9 23.9 23.9s23.9-10.7 23.9-23.9c.2-7.2-2.9-13.8-8.3-18.3zm1.1-17.3-7.3 11h-5.7l6.9-10.4 6.1-.6zm-17.5-2.5v4.6c0 .4.3.8.7.9.4.1.8 0 1.1-.3l4.4-5.3h4.7l-8.9 13.5h-2.1l-8.9-13.5h9zM-209-220l6.2.6 6.9 10.4h-5.7l-7.4-11zm-.1 14.1c0-.6.5-1.1 1.1-1.1h30.8c.6 0 1.1.5 1.1 1.1s-.5 1.1-1.1 1.1H-208c-.5.1-1.1-.4-1.1-1.1zm16.6 43.4c-12.1 0-21.9-9.8-21.9-21.9 0-7.4 3.7-14.2 9.8-18.3h24.1c6.2 4.1 9.8 10.9 9.8 18.3.1 12.1-9.7 21.9-21.8 21.9z"></path></svg>