<svg xmlns="http://www.w3.org/2000/svg" viewBox="0 0 64 64" id="online-banking"><g data-name="Computer-Banking-Online-Online Banking-Financial"><path fill="#5aaae7" d="M57 15v26H7V15a4 4 0 0 1 4-4h42a4 4 0 0 1 4 4Z"></path><path fill="#3d9ae2" d="M46 19v10h1v4h3v4H18v-4h3v-4h1V19h-1v-4h-3v-4h32v4h-3v4h-1z"></path><path fill="#ff9811" d="M48 8v5H16V8l16-5 16 5z"></path><path fill="#c6c5ca" d="M57 41v4a4 4 0 0 1-4 4H11a4 4 0 0 1-4-4v-4Z"></path><path fill="#898890" d="M42 57a2.015 2.015 0 0 1 2 2 2.006 2.006 0 0 1-2 2H22a2.015 2.015 0 0 1-2-2 2.006 2.006 0 0 1 2-2h20Z"></path><path fill="#acabb1" d="M40 57H24l1-8h14l1 8z"></path><path fill="#ee8700" d="M48 31v4H16v-4h32zM40 17h4v10h-4z"></path><path fill="#ff9811" d="M45 13v4h-6v-4h6z"></path><path fill="#ffa733" d="M25 13h14v4h1v10h-1v4H25v-4h-1V17h1v-4z"></path><path fill="#ff9811" d="M44 27h1v4h-6v-4h5zM24 27h1v4h-6v-4h5zM25 13v4h-6v-4h6z"></path><path fill="#ee8700" d="M20 17h4v10h-4z"></path><circle cx="32" cy="8" r="2" fill="#ffd422"></circle><path fill="#ee8700" d="M19 13h6v2h-6zM39 13h6v2h-6z"></path><path fill="#ff9811" d="M25 13h14v2H25z"></path><path fill="#898890" d="M39.25 51h-14.5l.25-2h14l.25 2z"></path><path d="M53 10h-2v2h2a3 3 0 0 1 3 3v25H8V15a3 3 0 0 1 3-3h2v-2h-2a5.006 5.006 0 0 0-5 5v30a5.006 5.006 0 0 0 5 5h12.867l-.75 6H22a3 3 0 0 0 0 6h20a3 3 0 0 0 0-6h-1.117l-.75-6H53a5.006 5.006 0 0 0 5-5V15a5.006 5.006 0 0 0-5-5ZM43 59a1 1 0 0 1-1 1H22a1 1 0 0 1 0-2h20a1 1 0 0 1 1 1Zm-4.133-3H25.133l.75-6h12.234ZM53 48H11a3 3 0 0 1-3-3v-3h48v3a3 3 0 0 1-3 3Z"></path><path d="M50 44h2v2h-2zM32 5a3 3 0 1 0 3 3 3 3 0 0 0-3-3Zm0 4a1 1 0 1 1 1-1 1 1 0 0 1-1 1Z"></path><path d="M16 36h32a1 1 0 0 0 1-1v-4a1 1 0 0 0-1-1h-2v-3a1 1 0 0 0-1-1v-8a1 1 0 0 0 1-1v-3h2a1 1 0 0 0 1-1V8a1 1 0 0 0-.7-.955l-16-5a1.009 1.009 0 0 0-.6 0l-16 5A1 1 0 0 0 15 8v5a1 1 0 0 0 1 1h2v3a1 1 0 0 0 1 1v8a1 1 0 0 0-1 1v3h-2a1 1 0 0 0-1 1v4a1 1 0 0 0 1 1Zm24-6v-2h4v2Zm-15-4v-8a1 1 0 0 0 1-1v-3h12v3a1 1 0 0 0 1 1v8a1 1 0 0 0-1 1v3H26v-3a1 1 0 0 0-1-1Zm18 0h-2v-8h2Zm1-10h-4v-2h4ZM17 8.735l15-4.687 15 4.687V12H17ZM24 14v2h-4v-2Zm-3 4h2v8h-2Zm-1 10h4v2h-4Zm-3 4h30v2H17Z"></path><path d="M33 25h-2a1 1 0 0 1-1-1h-2a3 3 0 0 0 3 3v1h2v-1a3 3 0 0 0 0-6h-2a1 1 0 0 1 0-2h2a1 1 0 0 1 1 1h2a3 3 0 0 0-3-3v-1h-2v1a3 3 0 0 0 0 6h2a1 1 0 0 1 0 2Z"></path></g></svg>